<svg xmlns="http://www.w3.org/2000/svg" xmlns:xlink="http://www.w3.org/1999/xlink" xmlns:lucid="lucid" width="1345.45" height="1218.22"><g transform="translate(-139.075 -60.183902439068646)" lucid:page-tab-id="0_0"><path d="M700 180h500v1060H700z" stroke="#000" stroke-width="2" fill="#fff" class="lucid-layer" lucid:layer-id="JIt8vJ0Vw1Mh" display="block"/><g class="lucid-layer" lucid:layer-id="fZt8Dipnt9.J" display="block"><path d="M459.75 679.75c0 10.9-8.84 19.75-19.75 19.75-10.9 0-19.75-8.84-19.75-19.75 0-10.9 8.84-19.75 19.75-19.75 10.9 0 19.75 8.84 19.75 19.75z" stroke="#000" stroke-width="2" fill="#fff"/><path d="M400 660h80v158h-80z" fill="none"/><path d="M440 699.5v55.3l40 63.2m-40-63.2L400 818m0-98.75h80" stroke="#000" stroke-width="2" fill="none"/><use xlink:href="#a" transform="matrix(1,0,0,1,320,817.9999999999799) translate(36.57499999999999 14.6)"/><use xlink:href="#b" transform="matrix(1,0,0,1,320,817.9999999999799) translate(86.52499999999999 14.6)"/><path d="M459.75 441.35c0 10.9-8.84 19.75-19.75 19.75-10.9 0-19.75-8.84-19.75-19.75 0-10.9 8.84-19.75 19.75-19.75 10.9 0 19.75 8.84 19.75 19.75z" stroke="#000" stroke-width="2" fill="#fff"/><path d="M400 421.6h80v158h-80z" fill="none"/><path d="M440 461.1v55.3l40 63.2m-40-63.2l-40 63.2m0-98.75h80" stroke="#000" stroke-width="2" fill="none"/><use xlink:href="#c" transform="matrix(1,0,0,1,320,579.5999999999999) translate(94.55 14.6)"/><path d="M1035.2 779.87c0 33.14-35.82 60-80 60s-80-26.86-80-60 35.82-60 80-60 80 26.86 80 60z" stroke="#000" stroke-width="2" fill="#fff"/><use xlink:href="#d" transform="matrix(1,0,0,1,875.1999999999996,719.8679397092162) translate(16.279999999999994 63.15)"/><use xlink:href="#e" transform="matrix(1,0,0,1,875.1999999999996,719.8679397092162) translate(59.83 63.15)"/><path d="M1035.2 652.97c0 33.14-35.82 60-80 60s-80-26.86-80-60 35.82-60 80-60 80 26.86 80 60z" stroke="#000" stroke-width="2" fill="#fff"/><use xlink:href="#f" transform="matrix(1,0,0,1,875.1999999999996,592.9697245020293) translate(30.10499999999999 51.9)"/><use xlink:href="#g" transform="matrix(1,0,0,1,875.1999999999996,592.9697245020293) translate(57.055 73.5)"/><path d="M1035.43 908c0 33.12-35.82 60-80 60-44.2 0-80-26.88-80-60 0-33.15 35.8-60 80-60 44.18 0 80 26.85 80 60z" stroke="#000" stroke-width="2" fill="#fff"/><use xlink:href="#h" transform="matrix(1,0,0,1,875.4259929685377,847.9864533403544) translate(28.104999999999997 63.15)"/><use xlink:href="#i" transform="matrix(1,0,0,1,875.4259929685377,847.9864533403544) translate(108.055 63.15)"/><path d="M1034.97 1036.1c0 33.14-35.8 60-80 60-44.18 0-80-26.86-80-60 0-33.13 35.82-60 80-60 44.2 0 80 26.87 80 60z" stroke="#000" stroke-width="2" fill="#fff"/><use xlink:href="#j" transform="matrix(1,0,0,1,874.9740070314616,976.1049669714926) translate(56.08 51.9)"/><use xlink:href="#k" transform="matrix(1,0,0,1,874.9740070314616,976.1049669714926) translate(33.404999999999994 73.5)"/><path d="M219.75 1089.75c0 10.9-8.84 19.75-19.75 19.75-10.9 0-19.75-8.84-19.75-19.75 0-10.9 8.84-19.75 19.75-19.75 10.9 0 19.75 8.84 19.75 19.75z" stroke="#000" stroke-width="2" fill="#fff"/><path d="M160 1070h80v158h-80z" fill="none"/><path d="M200 1109.5v55.3l40 63.2m-40-63.2l-40 63.2m0-98.75h80" stroke="#000" stroke-width="2" fill="none"/><use xlink:href="#l" transform="matrix(1,0,0,1,80,1228) translate(81.07499999999999 14.6)"/><path d="M1035.43 377.84c0 33.14-35.82 60-80 60-44.2 0-80-26.86-80-60s35.8-60 80-60c44.18 0 80 26.86 80 60z" stroke="#000" stroke-width="2" fill="#fff"/><use xlink:href="#m" transform="matrix(1,0,0,1,875.4259929685377,317.83805161818225) translate(12.579999999999993 63.15)"/><use xlink:href="#n" transform="matrix(1,0,0,1,875.4259929685377,317.83805161818225) translate(70.48 63.15)"/><path d="M400 1198.4c0 33.14-35.82 60-80 60s-80-26.86-80-60 35.82-60 80-60 80 26.86 80 60z" stroke="#000" stroke-width="2" fill="#fff"/><use xlink:href="#o" transform="matrix(1,0,0,1,240,1138.4) translate(24.62999999999999 63.15)"/><use xlink:href="#p" transform="matrix(1,0,0,1,240,1138.4) translate(75.53 63.15)"/><path d="M631.15 88.18c0-4.4 3.58-8 8-8h592.55c4.42 0 8 3.6 8 8v33.7c0 4.43-3.58 8-8 8H639.15c-4.42 0-8-3.57-8-8z" stroke="#000" stroke-opacity="0" stroke-width="2" fill="#fff" fill-opacity="0"/><use xlink:href="#q" transform="matrix(1,0,0,1,635.1519859370495,84.18390243906865) translate(126.07738934056007 28.844065040650406)"/><use xlink:href="#r" transform="matrix(1,0,0,1,635.1519859370495,84.18390243906865) translate(205.48118337850048 28.844065040650406)"/><use xlink:href="#s" transform="matrix(1,0,0,1,635.1519859370495,84.18390243906865) translate(351.6419783197832 28.844065040650406)"/><path d="M639.54 128.27h591.77M639.56 128.27h-4.02M1231.3 128.27h4" stroke="#b2b2b2" stroke-width="2" fill="none"/><path d="M630.7 136.04c0-4.42 3.58-8 8-8h593c4.42 0 8 3.58 8 8v5.92c0 4.42-3.58 8-8 8h-593c-4.42 0-8-3.58-8-8z" stroke="#000" stroke-opacity="0" stroke-width="2" fill="#fff" fill-opacity="0"/><use xlink:href="#t" transform="matrix(1,0,0,1,634.699999999973,132.03609756090344) translate(193.7334593621399 17.125925925925927)"/><use xlink:href="#u" transform="matrix(1,0,0,1,634.699999999973,132.03609756090344) translate(263.9065509259259 17.125925925925927)"/><use xlink:href="#v" transform="matrix(1,0,0,1,634.699999999973,132.03609756090344) translate(299.01817644032917 17.125925925925927)"/><use xlink:href="#w" transform="matrix(1,0,0,1,634.699999999973,132.03609756090344) translate(313.714899691358 17.125925925925927)"/><use xlink:href="#x" transform="matrix(1,0,0,1,634.699999999973,132.03609756090344) translate(354.6951826131687 17.125925925925927)"/><use xlink:href="#y" transform="matrix(1,0,0,1,634.699999999973,132.03609756090344) translate(374.75896862139916 17.125925925925927)"/><path d="M1399.75 837.74c0 10.9-8.84 19.75-19.75 19.75-10.9 0-19.75-8.86-19.75-19.76 0-10.9 8.84-19.75 19.75-19.75 10.9 0 19.75 8.83 19.75 19.74z" stroke="#000" stroke-width="2" fill="#fff"/><path d="M1340 818h80v158h-80z" fill="none"/><path d="M1380 857.5v55.3l40 63.2m-40-63.2l-40 63.2m0-98.76h80" stroke="#000" stroke-width="2" fill="none"/><use xlink:href="#z" transform="matrix(1,0,0,1,1260,975.9864533403544) translate(36.57499999999999 14.6)"/><use xlink:href="#A" transform="matrix(1,0,0,1,1260,975.9864533403544) translate(133.52499999999998 14.6)"/><path d="M1035.43 1164.22c0 33.14-35.82 60-80 60-44.2 0-80-26.86-80-60 0-33.13 35.8-60 80-60 44.18 0 80 26.87 80 60z" stroke="#000" stroke-width="2" fill="#fff"/><use xlink:href="#B" transform="matrix(1,0,0,1,875.4259929685377,1104.2234806026304) translate(46.305 63.15)"/><use xlink:href="#C" transform="matrix(1,0,0,1,875.4259929685377,1104.2234806026304) translate(89.855 63.15)"/><path d="M1035.2 511.42c0 33.14-35.82 60-80 60s-80-26.86-80-60 35.82-60 80-60 80 26.86 80 60z" stroke="#000" stroke-width="2" fill="#fff"/><use xlink:href="#D" transform="matrix(1,0,0,1,875.1999999999996,451.4181262241864) translate(49.029999999999994 51.9)"/><use xlink:href="#E" transform="matrix(1,0,0,1,875.1999999999996,451.4181262241864) translate(41.07999999999999 73.5)"/><path d="M1381 908" stroke="#000" stroke-width="2" fill="none"/><path d="M459.75 179.75c0 10.9-8.84 19.75-19.75 19.75-10.9 0-19.75-8.84-19.75-19.75 0-10.9 8.84-19.75 19.75-19.75 10.9 0 19.75 8.84 19.75 19.75z" stroke="#000" stroke-width="2" fill="#fff"/><path d="M400 160h80v158h-80z" fill="none"/><path d="M440 199.5v55.3l40 63.2m-40-63.2L400 318m0-98.75h80" stroke="#000" stroke-width="2" fill="none"/><use xlink:href="#F" transform="matrix(1,0,0,1,320,317.9999999999799) translate(68.07499999999999 14.6)"/><use xlink:href="#G" transform="matrix(1,0,0,1,320,317.9999999999799) translate(121.02499999999999 14.6)"/><path d="M1034.97 248c0 33.12-35.8 60-80 60-44.18 0-80-26.88-80-60 0-33.15 35.82-60 80-60 44.2 0 80 26.85 80 60z" stroke="#000" stroke-width="2" fill="#fff"/><use xlink:href="#H" transform="matrix(1,0,0,1,874.9740070314616,187.98645334033426) translate(12.104999999999999 53.41)"/><use xlink:href="#I" transform="matrix(1,0,0,1,874.9740070314616,187.98645334033426) translate(35.55499999999999 75.01)"/><path d="M415.23 255.06l-1.82.86-2.15 1.13-2.16 1.25-2.18 1.37-2.17 1.5-2.18 1.66-2.2 1.82-2.2 2-2.24 2.18-2.26 2.4-2.28 2.65-2.3 2.9-2.34 3.2-2.35 3.55-2.36 3.9-2.37 4.34-2.37 4.78-2.35 5.28-2.3 5.83-2.24 6.43-2.12 7.04-1.97 7.7-1.76 8.34-1.52 8.95-1.2 9.48-.82 9.9-.43 10.18v10.26l.43 10.18.83 9.9 1.2 9.48 1.5 8.94 1.78 8.34 1.98 7.7 2.13 7.05 2.25 6.42 2.3 5.83 2.35 5.3 2.38 4.76 2.37 4.33 2.37 3.9 2.35 3.54 2.32 3.22 2.3 2.9 2.28 2.65 2.26 2.4 2.23 2.2 2.2 1.98 2.2 1.82 2.2 1.66 2.16 1.5 2.16 1.38 2.15 1.26 2.17 1.13 2.17 1 2.17.93 2.2.82 2.23.72 2.25.63 2.3.54 2.33.44 2.38.35 2.44.26 2.52.15 1.58.03" stroke="#000" stroke-width="2" fill="none"/><path d="M437.08 250.4l-18.4 16.94-5.3-24.9z" stroke="#000" stroke-width="2" fill="#fff"/><path d="M437.97 511.58l4.03.08M872.16 248L442 250M854.84 258.26L872 248l-17.25-10.1M442.03 250H438M872.7 378.37L441.95 511.3M859.1 393.22l13.45-14.8-19.45-4.65M441.98 511.3l-3.85 1.18M872.6 512.3L441.88 747.17M862.24 529.54l10.24-17.18-20-.7M441.9 747.17l-3.53 1.93M438 749.98l-1.36-.03-2.3-.14-2.2-.23-2.2-.32-2.1-.4-2.1-.5-2.06-.57-2.02-.66-2-.74-2-.84-1.98-.93-1.97-1.02-1.96-1.14-1.97-1.25-1.98-1.4-2-1.5-2-1.65-2.02-1.82-2.03-2-2.06-2.18-2.08-2.4-2.1-2.66-2.13-2.93-2.15-3.23-2.15-3.56-2.17-3.94-2.16-4.36-2.14-4.8-2.1-5.33-2.04-5.85-1.95-6.43-1.8-7.02-1.6-7.6-1.4-8.15-1.08-8.64-.75-9.02-.4-9.27v-9.36l.4-9.26.75-9.02 1.1-8.64 1.37-8.15 1.62-7.6 1.8-7 1.93-6.44 2.03-5.87 2.1-5.3 2.15-4.82 2.16-4.35 2.16-3.94 2.16-3.55 2.14-3.22 2.12-2.92 2.1-2.65 2.08-2.4 2.05-2.2 2.04-2 2-1.8 2-1.66 2-1.52 1.97-1.37 1.97-1.24 1.97-1.14 1.7-.87M437.97 749.98l4.03.08" stroke="#000" stroke-width="2" fill="none"/><path d="M437.1 512.05l-18.05 17.3-5.82-24.77z" stroke="#000" stroke-width="2" fill="#fff"/><path d="M872.42 653.36l-430.44 94.1M857.64 667l14.64-13.6-19-6.28M442 747.44l-3.93.86M872.4 779.74L442 750.07M854.37 788.7l17.87-8.97-16.47-11.34M442.02 750.07l-4-.28M872.72 907.36L441.94 750.34M852.92 910.98l19.66-3.67-12.7-15.45M441.96 750.35l-3.78-1.38M872.46 1035.1L441.83 750.55M852.36 1034.03l19.98 1-8.75-18M441.86 750.57l-3.36-2.22M1037.88 1163.14l342.32-254.56M1045.74 1144.6l-7.74 18.45 19.9-2.1M1380.18 908.6l3.23-2.4M873.1 1162.97L439.73 750.7M853.5 1158.38l19.5 4.5-5.45-19.25M439.74 750.7l-2.9-2.77" stroke="#000" stroke-width="2" fill="none"/></g><defs><path d="M185-189c-5-48-123-54-124 2 14 75 158 14 163 119 3 78-121 87-175 55-17-10-28-26-33-46l33-7c5 56 141 63 141-1 0-78-155-14-162-118-5-82 145-84 179-34 5 7 8 16 11 25" id="J"/><path d="M141-36C126-15 110 5 73 4 37 3 15-17 15-53c-1-64 63-63 125-63 3-35-9-54-41-54-24 1-41 7-42 31l-33-3c5-37 33-52 76-52 45 0 72 20 72 64v82c-1 20 7 32 28 27v20c-31 9-61-2-59-35zM48-53c0 20 12 33 32 33 41-3 63-29 60-74-43 2-92-5-92 41" id="K"/><path d="M24 0v-261h32V0H24" id="L"/><path d="M100-194c63 0 86 42 84 106H49c0 40 14 67 53 68 26 1 43-12 49-29l28 8c-11 28-37 45-77 45C44 4 14-33 15-96c1-61 26-98 85-98zm52 81c6-60-76-77-97-28-3 7-6 17-6 28h103" id="M"/><path d="M135-143c-3-34-86-38-87 0 15 53 115 12 119 90S17 21 10-45l28-5c4 36 97 45 98 0-10-56-113-15-118-90-4-57 82-63 122-42 12 7 21 19 24 35" id="N"/><g id="a"><use transform="matrix(0.05,0,0,0.05,0,0)" xlink:href="#J"/><use transform="matrix(0.05,0,0,0.05,12,0)" xlink:href="#K"/><use transform="matrix(0.05,0,0,0.05,22,0)" xlink:href="#L"/><use transform="matrix(0.05,0,0,0.05,25.950000000000003,0)" xlink:href="#M"/><use transform="matrix(0.05,0,0,0.05,35.95,0)" xlink:href="#N"/></g><path d="M233-177c-1 41-23 64-60 70L243 0h-38l-65-103H63V0H30v-248c88 3 205-21 203 71zM63-129c60-2 137 13 137-47 0-61-80-42-137-45v92" id="O"/><path d="M115-194c55 1 70 41 70 98S169 2 115 4C84 4 66-9 55-30l1 105H24l-1-265h31l2 30c10-21 28-34 59-34zm-8 174c40 0 45-34 45-75s-6-73-45-74c-42 0-51 32-51 76 0 43 10 73 51 73" id="P"/><path d="M114-163C36-179 61-72 57 0H25l-1-190h30c1 12-1 29 2 39 6-27 23-49 58-41v29" id="Q"/><path d="M117-194c89-4 53 116 60 194h-32v-121c0-31-8-49-39-48C34-167 62-67 57 0H25l-1-190h30c1 10-1 24 2 32 11-22 29-35 61-36" id="R"/><path d="M59-47c-2 24 18 29 38 22v24C64 9 27 4 27-40v-127H5v-23h24l9-43h21v43h35v23H59v120" id="S"/><g id="b"><use transform="matrix(0.05,0,0,0.05,0,0)" xlink:href="#O"/><use transform="matrix(0.05,0,0,0.05,12.950000000000001,0)" xlink:href="#M"/><use transform="matrix(0.05,0,0,0.05,22.950000000000003,0)" xlink:href="#P"/><use transform="matrix(0.05,0,0,0.05,32.95,0)" xlink:href="#Q"/><use transform="matrix(0.05,0,0,0.05,38.900000000000006,0)" xlink:href="#M"/><use transform="matrix(0.05,0,0,0.05,48.900000000000006,0)" xlink:href="#N"/><use transform="matrix(0.05,0,0,0.05,57.900000000000006,0)" xlink:href="#M"/><use transform="matrix(0.05,0,0,0.05,67.9,0)" xlink:href="#R"/><use transform="matrix(0.05,0,0,0.05,77.9,0)" xlink:href="#S"/><use transform="matrix(0.05,0,0,0.05,82.9,0)" xlink:href="#K"/><use transform="matrix(0.05,0,0,0.05,92.9,0)" xlink:href="#R"/><use transform="matrix(0.05,0,0,0.05,102.9,0)" xlink:href="#S"/><use transform="matrix(0.05,0,0,0.05,107.9,0)" xlink:href="#N"/></g><path d="M205 0l-28-72H64L36 0H1l101-248h38L239 0h-34zm-38-99l-47-123c-12 45-31 82-46 123h93" id="T"/><path d="M85-194c31 0 48 13 60 33l-1-100h32l1 261h-30c-2-10 0-23-3-31C134-8 116 4 85 4 32 4 16-35 15-94c0-66 23-100 70-100zm9 24c-40 0-46 34-46 75 0 40 6 74 45 74 42 0 51-32 51-76 0-42-9-74-50-73" id="U"/><path d="M210-169c-67 3-38 105-44 169h-31v-121c0-29-5-50-35-48C34-165 62-65 56 0H25l-1-190h30c1 10-1 24 2 32 10-44 99-50 107 0 11-21 27-35 58-36 85-2 47 119 55 194h-31v-121c0-29-5-49-35-48" id="V"/><path d="M24-231v-30h32v30H24zM24 0v-190h32V0H24" id="W"/><g id="c"><use transform="matrix(0.05,0,0,0.05,0,0)" xlink:href="#T"/><use transform="matrix(0.05,0,0,0.05,12,0)" xlink:href="#U"/><use transform="matrix(0.05,0,0,0.05,22,0)" xlink:href="#V"/><use transform="matrix(0.05,0,0,0.05,36.95,0)" xlink:href="#W"/><use transform="matrix(0.05,0,0,0.05,40.900000000000006,0)" xlink:href="#R"/></g><path d="M137 0h-34L2-248h35l83 218 83-218h36" id="X"/><path d="M206 0h-36l-40-164L89 0H53L-1-190h32L70-26l43-164h34l41 164 42-164h31" id="Y"/><g id="d"><use transform="matrix(0.05,0,0,0.05,0,0)" xlink:href="#X"/><use transform="matrix(0.05,0,0,0.05,11.65,0)" xlink:href="#W"/><use transform="matrix(0.05,0,0,0.05,15.600000000000001,0)" xlink:href="#M"/><use transform="matrix(0.05,0,0,0.05,25.6,0)" xlink:href="#Y"/></g><path d="M96-169c-40 0-48 33-48 73s9 75 48 75c24 0 41-14 43-38l32 2c-6 37-31 61-74 61-59 0-76-41-82-99-10-93 101-131 147-64 4 7 5 14 7 22l-32 3c-4-21-16-35-41-35" id="Z"/><path d="M106-169C34-169 62-67 57 0H25v-261h32l-1 103c12-21 28-36 61-36 89 0 53 116 60 194h-32v-121c2-32-8-49-39-48" id="aa"/><g id="e"><use transform="matrix(0.05,0,0,0.05,0,0)" xlink:href="#J"/><use transform="matrix(0.05,0,0,0.05,12,0)" xlink:href="#Z"/><use transform="matrix(0.05,0,0,0.05,21,0)" xlink:href="#aa"/><use transform="matrix(0.05,0,0,0.05,31,0)" xlink:href="#M"/><use transform="matrix(0.05,0,0,0.05,41,0)" xlink:href="#V"/><use transform="matrix(0.05,0,0,0.05,55.95,0)" xlink:href="#K"/><use transform="matrix(0.05,0,0,0.05,65.95,0)" xlink:href="#S"/><use transform="matrix(0.05,0,0,0.05,70.95,0)" xlink:href="#W"/><use transform="matrix(0.05,0,0,0.05,74.9,0)" xlink:href="#Z"/></g><g id="f"><use transform="matrix(0.05,0,0,0.05,0,0)" xlink:href="#T"/><use transform="matrix(0.05,0,0,0.05,12,0)" xlink:href="#U"/><use transform="matrix(0.05,0,0,0.05,22,0)" xlink:href="#V"/><use transform="matrix(0.05,0,0,0.05,36.95,0)" xlink:href="#W"/><use transform="matrix(0.05,0,0,0.05,40.900000000000006,0)" xlink:href="#R"/><use transform="matrix(0.05,0,0,0.05,50.900000000000006,0)" xlink:href="#W"/><use transform="matrix(0.05,0,0,0.05,54.85,0)" xlink:href="#N"/><use transform="matrix(0.05,0,0,0.05,63.85,0)" xlink:href="#S"/><use transform="matrix(0.05,0,0,0.05,68.85000000000001,0)" xlink:href="#Q"/><use transform="matrix(0.05,0,0,0.05,74.80000000000001,0)" xlink:href="#K"/><use transform="matrix(0.05,0,0,0.05,84.80000000000001,0)" xlink:href="#S"/><use transform="matrix(0.05,0,0,0.05,89.80000000000001,0)" xlink:href="#M"/></g><path d="M140-251c81 0 123 46 123 126C263-46 219 4 140 4 59 4 17-45 17-125s42-126 123-126zm0 227c63 0 89-41 89-101s-29-99-89-99c-61 0-89 39-89 99S79-25 140-24" id="ab"/><g id="g"><use transform="matrix(0.05,0,0,0.05,0,0)" xlink:href="#ab"/><use transform="matrix(0.05,0,0,0.05,14,0)" xlink:href="#Q"/><use transform="matrix(0.05,0,0,0.05,19.95,0)" xlink:href="#U"/><use transform="matrix(0.05,0,0,0.05,29.950000000000003,0)" xlink:href="#M"/><use transform="matrix(0.05,0,0,0.05,39.95,0)" xlink:href="#Q"/></g><path d="M143 4C61 4 22-44 18-125c-5-107 100-154 193-111 17 8 29 25 37 43l-32 9c-13-25-37-40-76-40-61 0-88 39-88 99 0 61 29 100 91 101 35 0 62-11 79-27v-45h-74v-28h105v86C228-13 192 4 143 4" id="ac"/><g id="h"><use transform="matrix(0.05,0,0,0.05,0,0)" xlink:href="#ac"/><use transform="matrix(0.05,0,0,0.05,14,0)" xlink:href="#M"/><use transform="matrix(0.05,0,0,0.05,24,0)" xlink:href="#R"/><use transform="matrix(0.05,0,0,0.05,34,0)" xlink:href="#M"/><use transform="matrix(0.05,0,0,0.05,44,0)" xlink:href="#Q"/><use transform="matrix(0.05,0,0,0.05,49.95,0)" xlink:href="#K"/><use transform="matrix(0.05,0,0,0.05,59.95,0)" xlink:href="#S"/><use transform="matrix(0.05,0,0,0.05,64.95,0)" xlink:href="#M"/></g><path d="M160-131c35 5 61 23 61 61C221 17 115-2 30 0v-248c76 3 177-17 177 60 0 33-19 50-47 57zm-97-11c50-1 110 9 110-42 0-47-63-36-110-37v79zm0 115c55-2 124 14 124-45 0-56-70-42-124-44v89" id="ad"/><g id="i"><use transform="matrix(0.05,0,0,0.05,0,0)" xlink:href="#ad"/><use transform="matrix(0.05,0,0,0.05,12,0)" xlink:href="#W"/><use transform="matrix(0.05,0,0,0.05,15.949999999999998,0)" xlink:href="#L"/><use transform="matrix(0.05,0,0,0.05,19.9,0)" xlink:href="#L"/></g><path d="M63-220v92h138v28H63V0H30v-248h175v28H63" id="ae"/><g id="j"><use transform="matrix(0.05,0,0,0.05,0,0)" xlink:href="#ae"/><use transform="matrix(0.05,0,0,0.05,10.950000000000001,0)" xlink:href="#W"/><use transform="matrix(0.05,0,0,0.05,14.9,0)" xlink:href="#R"/><use transform="matrix(0.05,0,0,0.05,24.900000000000002,0)" xlink:href="#W"/><use transform="matrix(0.05,0,0,0.05,28.85,0)" xlink:href="#N"/><use transform="matrix(0.05,0,0,0.05,37.85,0)" xlink:href="#aa"/></g><path d="M127-220V0H93v-220H8v-28h204v28h-85" id="af"/><path d="M100-194c62-1 85 37 85 99 1 63-27 99-86 99S16-35 15-95c0-66 28-99 85-99zM99-20c44 1 53-31 53-75 0-43-8-75-51-75s-53 32-53 75 10 74 51 75" id="ag"/><g id="k"><use transform="matrix(0.05,0,0,0.05,0,0)" xlink:href="#af"/><use transform="matrix(0.05,0,0,0.05,10.3,0)" xlink:href="#Q"/><use transform="matrix(0.05,0,0,0.05,16.25,0)" xlink:href="#K"/><use transform="matrix(0.05,0,0,0.05,26.25,0)" xlink:href="#R"/><use transform="matrix(0.05,0,0,0.05,36.25,0)" xlink:href="#N"/><use transform="matrix(0.05,0,0,0.05,45.25,0)" xlink:href="#K"/><use transform="matrix(0.05,0,0,0.05,55.25,0)" xlink:href="#Z"/><use transform="matrix(0.05,0,0,0.05,64.25,0)" xlink:href="#S"/><use transform="matrix(0.05,0,0,0.05,69.25,0)" xlink:href="#W"/><use transform="matrix(0.05,0,0,0.05,73.2,0)" xlink:href="#ag"/><use transform="matrix(0.05,0,0,0.05,83.2,0)" xlink:href="#R"/></g><path d="M212-179c-10-28-35-45-73-45-59 0-87 40-87 99 0 60 29 101 89 101 43 0 62-24 78-52l27 14C228-24 195 4 139 4 59 4 22-46 18-125c-6-104 99-153 187-111 19 9 31 26 39 46" id="ah"/><path d="M84 4C-5 8 30-112 23-190h32v120c0 31 7 50 39 49 72-2 45-101 50-169h31l1 190h-30c-1-10 1-25-2-33-11 22-28 36-60 37" id="ai"/><g id="l"><use transform="matrix(0.05,0,0,0.05,0,0)" xlink:href="#ah"/><use transform="matrix(0.05,0,0,0.05,12.950000000000001,0)" xlink:href="#ai"/><use transform="matrix(0.05,0,0,0.05,22.950000000000003,0)" xlink:href="#N"/><use transform="matrix(0.05,0,0,0.05,31.950000000000003,0)" xlink:href="#S"/><use transform="matrix(0.05,0,0,0.05,36.95,0)" xlink:href="#ag"/><use transform="matrix(0.05,0,0,0.05,46.95,0)" xlink:href="#V"/><use transform="matrix(0.05,0,0,0.05,61.900000000000006,0)" xlink:href="#M"/><use transform="matrix(0.05,0,0,0.05,71.9,0)" xlink:href="#Q"/></g><path d="M240 0l2-218c-23 76-54 145-80 218h-23L58-218 59 0H30v-248h44l77 211c21-75 51-140 76-211h43V0h-30" id="aj"/><path d="M101-234c-31-9-42 10-38 44h38v23H63V0H32v-167H5v-23h27c-7-52 17-82 69-68v24" id="ak"/><path d="M179-190L93 31C79 59 56 82 12 73V49c39 6 53-20 64-50L1-190h34L92-34l54-156h33" id="al"/><g id="m"><use transform="matrix(0.05,0,0,0.05,0,0)" xlink:href="#aj"/><use transform="matrix(0.05,0,0,0.05,14.950000000000001,0)" xlink:href="#ag"/><use transform="matrix(0.05,0,0,0.05,24.950000000000003,0)" xlink:href="#U"/><use transform="matrix(0.05,0,0,0.05,34.95,0)" xlink:href="#W"/><use transform="matrix(0.05,0,0,0.05,38.900000000000006,0)" xlink:href="#ak"/><use transform="matrix(0.05,0,0,0.05,43.900000000000006,0)" xlink:href="#al"/></g><path d="M30-248c118-7 216 8 213 122C240-48 200 0 122 0H30v-248zM63-27c89 8 146-16 146-99s-60-101-146-95v194" id="am"/><path d="M115-194c53 0 69 39 70 98 0 66-23 100-70 100C84 3 66-7 56-30L54 0H23l1-261h32v101c10-23 28-34 59-34zm-8 174c40 0 45-34 45-75 0-40-5-75-45-74-42 0-51 32-51 76 0 43 10 73 51 73" id="an"/><g id="n"><use transform="matrix(0.05,0,0,0.05,0,0)" xlink:href="#am"/><use transform="matrix(0.05,0,0,0.05,12.950000000000001,0)" xlink:href="#K"/><use transform="matrix(0.05,0,0,0.05,22.950000000000003,0)" xlink:href="#S"/><use transform="matrix(0.05,0,0,0.05,27.950000000000003,0)" xlink:href="#K"/><use transform="matrix(0.05,0,0,0.05,37.95,0)" xlink:href="#an"/><use transform="matrix(0.05,0,0,0.05,47.95,0)" xlink:href="#K"/><use transform="matrix(0.05,0,0,0.05,57.95,0)" xlink:href="#N"/><use transform="matrix(0.05,0,0,0.05,66.95,0)" xlink:href="#M"/></g><g id="o"><use transform="matrix(0.05,0,0,0.05,0,0)" xlink:href="#ab"/><use transform="matrix(0.05,0,0,0.05,14,0)" xlink:href="#Q"/><use transform="matrix(0.05,0,0,0.05,19.95,0)" xlink:href="#U"/><use transform="matrix(0.05,0,0,0.05,29.950000000000003,0)" xlink:href="#M"/><use transform="matrix(0.05,0,0,0.05,39.95,0)" xlink:href="#Q"/></g><g id="p"><use transform="matrix(0.05,0,0,0.05,0,0)" xlink:href="#ah"/><use transform="matrix(0.05,0,0,0.05,12.950000000000001,0)" xlink:href="#K"/><use transform="matrix(0.05,0,0,0.05,22.950000000000003,0)" xlink:href="#Q"/><use transform="matrix(0.05,0,0,0.05,28.900000000000002,0)" xlink:href="#P"/><use transform="matrix(0.05,0,0,0.05,38.900000000000006,0)" xlink:href="#ag"/><use transform="matrix(0.05,0,0,0.05,48.900000000000006,0)" xlink:href="#Q"/><use transform="matrix(0.05,0,0,0.05,54.85,0)" xlink:href="#S"/></g><path fill="#b2b2b2" d="M76-208v77h127v40H76V0H24v-248h183v40H76" id="ao"/><path fill="#b2b2b2" d="M140-251c80 0 125 45 125 126S219 4 139 4C58 4 15-44 15-125s44-126 125-126zm-1 214c52 0 73-35 73-88 0-50-21-86-72-86-52 0-73 35-73 86s22 88 72 88" id="ap"/><path fill="#b2b2b2" d="M67-125c0 54 23 88 75 88 28 0 53-7 68-21v-34h-60v-39h108v91C232-14 192 4 140 4 58 4 20-42 15-125 8-236 126-280 215-234c19 10 29 26 37 47l-47 15c-11-23-29-39-63-39-53 1-75 33-75 86" id="aq"/><g id="q"><use transform="matrix(0.09033423667570009,0,0,0.09033423667570009,0,0)" xlink:href="#ao"/><use transform="matrix(0.09033423667570009,0,0,0.09033423667570009,19.78319783197832,0)" xlink:href="#ap"/><use transform="matrix(0.09033423667570009,0,0,0.09033423667570009,45.07678410117435,0)" xlink:href="#aq"/></g><path fill="#b2b2b2" d="M238-95c0 69-44 99-111 99C63 4 22-25 22-93v-155h51v151c-1 38 19 59 55 60 90 1 49-130 58-211h52v153" id="ar"/><path fill="#b2b2b2" d="M137-138c1-29-70-34-71-4 15 46 118 7 119 86 1 83-164 76-172 9l43-7c4 19 20 25 44 25 33 8 57-30 24-41C81-84 22-81 20-136c-2-80 154-74 161-7" id="as"/><path fill="#b2b2b2" d="M185-48c-13 30-37 53-82 52C43 2 14-33 14-96s30-98 90-98c62 0 83 45 84 108H66c0 31 8 55 39 56 18 0 30-7 34-22zm-45-69c5-46-57-63-70-21-2 6-4 13-4 21h74" id="at"/><path fill="#b2b2b2" d="M67-125c0 53 21 87 73 88 37 1 54-22 65-47l45 17C233-25 199 4 140 4 58 4 20-42 15-125 8-235 124-281 211-232c18 10 29 29 36 50l-46 12c-8-25-30-41-62-41-52 0-71 34-72 86" id="au"/><path fill="#b2b2b2" d="M133-34C117-15 103 5 69 4 32 3 11-16 11-54c-1-60 55-63 116-61 1-26-3-47-28-47-18 1-26 9-28 27l-52-2c7-38 36-58 82-57s74 22 75 68l1 82c-1 14 12 18 25 15v27c-30 8-71 5-69-32zm-48 3c29 0 43-24 42-57-32 0-66-3-65 30 0 17 8 27 23 27" id="av"/><g id="r"><use transform="matrix(0.09033423667570009,0,0,0.09033423667570009,0,0)" xlink:href="#ar"/><use transform="matrix(0.09033423667570009,0,0,0.09033423667570009,23.396567299006325,0)" xlink:href="#as"/><use transform="matrix(0.09033423667570009,0,0,0.09033423667570009,41.463414634146346,0)" xlink:href="#at"/><use transform="matrix(0.09033423667570009,0,0,0.09033423667570009,59.53026196928636,0)" xlink:href="#au"/><use transform="matrix(0.09033423667570009,0,0,0.09033423667570009,82.92682926829269,0)" xlink:href="#av"/><use transform="matrix(0.09033423667570009,0,0,0.09033423667570009,100.9936766034327,0)" xlink:href="#as"/><use transform="matrix(0.09033423667570009,0,0,0.09033423667570009,119.06052393857271,0)" xlink:href="#at"/></g><path fill="#b2b2b2" d="M24-248c120-7 223 5 221 122C244-46 201 0 124 0H24v-248zM76-40c74 7 117-18 117-86 0-67-45-88-117-82v168" id="aw"/><path fill="#b2b2b2" d="M25-224v-37h50v37H25zM25 0v-190h50V0H25" id="ax"/><path fill="#b2b2b2" d="M195-6C206 82 75 100 31 46c-4-6-6-13-8-21l49-6c3 16 16 24 34 25 40 0 42-37 40-79-11 22-30 35-61 35-53 0-70-43-70-97 0-56 18-96 73-97 30 0 46 14 59 34l2-30h47zm-90-29c32 0 41-27 41-63 0-35-9-62-40-62-32 0-39 29-40 63 0 36 9 62 39 62" id="ay"/><path fill="#b2b2b2" d="M135-150c-39-12-60 13-60 57V0H25l-1-190h47c2 13-1 29 3 40 6-28 27-53 61-41v41" id="az"/><path fill="#b2b2b2" d="M220-157c-53 9-28 100-34 157h-49v-107c1-27-5-49-29-50C55-147 81-57 75 0H25l-1-190h47c2 12-1 28 3 38 10-53 101-56 108 0 13-22 24-43 59-42 82 1 51 116 57 194h-49v-107c-1-25-5-48-29-50" id="aA"/><g id="s"><use transform="matrix(0.09033423667570009,0,0,0.09033423667570009,0,0)" xlink:href="#aw"/><use transform="matrix(0.09033423667570009,0,0,0.09033423667570009,23.396567299006325,0)" xlink:href="#ax"/><use transform="matrix(0.09033423667570009,0,0,0.09033423667570009,32.429990966576334,0)" xlink:href="#av"/><use transform="matrix(0.09033423667570009,0,0,0.09033423667570009,50.49683830171635,0)" xlink:href="#ay"/><use transform="matrix(0.09033423667570009,0,0,0.09033423667570009,70.28003613369467,0)" xlink:href="#az"/><use transform="matrix(0.09033423667570009,0,0,0.09033423667570009,82.92682926829268,0)" xlink:href="#av"/><use transform="matrix(0.09033423667570009,0,0,0.09033423667570009,100.9936766034327,0)" xlink:href="#aA"/></g><path fill="#b2b2b2" d="M26 75v-336h71v23H56V52h41v23H26" id="aB"/><path fill="#b2b2b2" d="M143 4C61 4 22-44 18-125c-5-107 100-154 193-111 17 8 29 25 37 43l-32 9c-13-25-37-40-76-40-61 0-88 39-88 99 0 61 29 100 91 101 35 0 62-11 79-27v-45h-74v-28h105v86C228-13 192 4 143 4" id="aC"/><path fill="#b2b2b2" d="M114-163C36-179 61-72 57 0H25l-1-190h30c1 12-1 29 2 39 6-27 23-49 58-41v29" id="aD"/><path fill="#b2b2b2" d="M84 4C-5 8 30-112 23-190h32v120c0 31 7 50 39 49 72-2 45-101 50-169h31l1 190h-30c-1-10 1-25-2-33-11 22-28 36-60 37" id="aE"/><path fill="#b2b2b2" d="M115-194c55 1 70 41 70 98S169 2 115 4C84 4 66-9 55-30l1 105H24l-1-265h31l2 30c10-21 28-34 59-34zm-8 174c40 0 45-34 45-75s-6-73-45-74c-42 0-51 32-51 76 0 43 10 73 51 73" id="aF"/><path fill="#b2b2b2" d="M100-194c63 0 86 42 84 106H49c0 40 14 67 53 68 26 1 43-12 49-29l28 8c-11 28-37 45-77 45C44 4 14-33 15-96c1-61 26-98 85-98zm52 81c6-60-76-77-97-28-3 7-6 17-6 28h103" id="aG"/><g id="t"><use transform="matrix(0.05015946502057613,0,0,0.05015946502057613,0,0)" xlink:href="#aB"/><use transform="matrix(0.05015946502057613,0,0,0.05015946502057613,5.015946502057613,0)" xlink:href="#aC"/><use transform="matrix(0.05015946502057613,0,0,0.05015946502057613,19.06059670781893,0)" xlink:href="#aD"/><use transform="matrix(0.05015946502057613,0,0,0.05015946502057613,25.02957304526749,0)" xlink:href="#aE"/><use transform="matrix(0.05015946502057613,0,0,0.05015946502057613,35.061466049382716,0)" xlink:href="#aF"/><use transform="matrix(0.05015946502057613,0,0,0.05015946502057613,45.09335905349794,0)" xlink:href="#aF"/><use transform="matrix(0.05015946502057613,0,0,0.05015946502057613,55.12525205761317,0)" xlink:href="#aG"/></g><path fill="#b2b2b2" d="M27 0v-27h64v-190l-56 39v-29l58-41h29v221h61V0H27" id="aH"/><path fill="#b2b2b2" d="M126-127c33 6 58 20 58 59 0 88-139 92-164 29-3-8-5-16-6-25l32-3c6 27 21 44 54 44 32 0 52-15 52-46 0-38-36-46-79-43v-28c39 1 72-4 72-42 0-27-17-43-46-43-28 0-47 15-49 41l-32-3c6-42 35-63 81-64 48-1 79 21 79 65 0 36-21 52-52 59" id="aI"/><path fill="#b2b2b2" d="M3 75V52h41v-290H3v-23h71V75H3" id="aJ"/><g id="u"><use transform="matrix(0.05015946502057613,0,0,0.05015946502057613,0,0)" xlink:href="#aH"/><use transform="matrix(0.05015946502057613,0,0,0.05015946502057613,10.031893004115226,0)" xlink:href="#aI"/><use transform="matrix(0.05015946502057613,0,0,0.05015946502057613,20.06378600823045,0)" xlink:href="#aJ"/></g><path fill="#b2b2b2" d="M32 76v-337h29V76H32" id="aK"/><use transform="matrix(0.05015946502057613,0,0,0.05015946502057613,0,0)" xlink:href="#aK" id="v"/><path fill="#b2b2b2" d="M205 0l-28-72H64L36 0H1l101-248h38L239 0h-34zm-38-99l-47-123c-12 45-31 82-46 123h93" id="aL"/><path fill="#b2b2b2" d="M24-231v-30h32v30H24zM24 0v-190h32V0H24" id="aM"/><path fill="#b2b2b2" d="M24 0v-261h32V0H24" id="aN"/><g id="w"><use transform="matrix(0.05015946502057613,0,0,0.05015946502057613,0,0)" xlink:href="#aL"/><use transform="matrix(0.05015946502057613,0,0,0.05015946502057613,12.038271604938272,0)" xlink:href="#aF"/><use transform="matrix(0.05015946502057613,0,0,0.05015946502057613,22.0701646090535,0)" xlink:href="#aD"/><use transform="matrix(0.05015946502057613,0,0,0.05015946502057613,28.03914094650206,0)" xlink:href="#aM"/><use transform="matrix(0.05015946502057613,0,0,0.05015946502057613,32.00173868312757,0)" xlink:href="#aN"/></g><path fill="#b2b2b2" d="M68-38c1 34 0 65-14 84H32c9-13 17-26 17-46H33v-38h35" id="aO"/><g id="x"><use transform="matrix(0.05015946502057613,0,0,0.05015946502057613,0,0)" xlink:href="#aI"/><use transform="matrix(0.05015946502057613,0,0,0.05015946502057613,10.031893004115226,0)" xlink:href="#aO"/></g><path fill="#b2b2b2" d="M101-251c82-7 93 87 43 132L82-64C71-53 59-42 53-27h129V0H18c2-99 128-94 128-182 0-28-16-43-45-43s-46 15-49 41l-32-3c6-41 34-60 81-64" id="aP"/><path fill="#b2b2b2" d="M101-251c68 0 85 55 85 127S166 4 100 4C33 4 14-52 14-124c0-73 17-127 87-127zm-1 229c47 0 54-49 54-102s-4-102-53-102c-51 0-55 48-55 102 0 53 5 102 54 102" id="aQ"/><path fill="#b2b2b2" d="M99-251c64 0 84 50 84 122C183-37 130 33 47-8c-14-7-20-23-25-40l30-5c6 39 69 39 84 7 9-19 16-44 16-74-10 22-31 35-62 35-49 0-73-33-73-83 0-54 28-83 82-83zm-1 141c31-1 51-18 51-49 0-36-14-67-51-67-34 0-49 23-49 58 0 34 15 58 49 58" id="aR"/><g id="y"><use transform="matrix(0.05015946502057613,0,0,0.05015946502057613,0,0)" xlink:href="#aP"/><use transform="matrix(0.05015946502057613,0,0,0.05015946502057613,10.031893004115226,0)" xlink:href="#aQ"/><use transform="matrix(0.05015946502057613,0,0,0.05015946502057613,20.06378600823045,0)" xlink:href="#aH"/><use transform="matrix(0.05015946502057613,0,0,0.05015946502057613,30.09567901234568,0)" xlink:href="#aR"/></g><g id="z"><use transform="matrix(0.05,0,0,0.05,0,0)" xlink:href="#J"/><use transform="matrix(0.05,0,0,0.05,12,0)" xlink:href="#S"/><use transform="matrix(0.05,0,0,0.05,17,0)" xlink:href="#ag"/><use transform="matrix(0.05,0,0,0.05,27,0)" xlink:href="#Q"/><use transform="matrix(0.05,0,0,0.05,32.95,0)" xlink:href="#M"/><use transform="matrix(0.05,0,0,0.05,42.95,0)" xlink:href="#aa"/><use transform="matrix(0.05,0,0,0.05,52.95,0)" xlink:href="#ag"/><use transform="matrix(0.05,0,0,0.05,62.95,0)" xlink:href="#ai"/><use transform="matrix(0.05,0,0,0.05,72.95,0)" xlink:href="#N"/><use transform="matrix(0.05,0,0,0.05,81.95,0)" xlink:href="#M"/></g><path d="M30 0v-248h33v221h125V0H30" id="aS"/><path d="M177-190C167-65 218 103 67 71c-23-6-38-20-44-43l32-5c15 47 100 32 89-28v-30C133-14 115 1 83 1 29 1 15-40 15-95c0-56 16-97 71-98 29-1 48 16 59 35 1-10 0-23 2-32h30zM94-22c36 0 50-32 50-73 0-42-14-75-50-75-39 0-46 34-46 75s6 73 46 73" id="aT"/><g id="A"><use transform="matrix(0.05,0,0,0.05,0,0)" xlink:href="#aS"/><use transform="matrix(0.05,0,0,0.05,10,0)" xlink:href="#ag"/><use transform="matrix(0.05,0,0,0.05,20,0)" xlink:href="#aT"/><use transform="matrix(0.05,0,0,0.05,30,0)" xlink:href="#W"/><use transform="matrix(0.05,0,0,0.05,33.95,0)" xlink:href="#N"/><use transform="matrix(0.05,0,0,0.05,42.95,0)" xlink:href="#S"/><use transform="matrix(0.05,0,0,0.05,47.95,0)" xlink:href="#W"/><use transform="matrix(0.05,0,0,0.05,51.900000000000006,0)" xlink:href="#Z"/><use transform="matrix(0.05,0,0,0.05,60.900000000000006,0)" xlink:href="#N"/></g><g id="B"><use transform="matrix(0.05,0,0,0.05,0,0)" xlink:href="#X"/><use transform="matrix(0.05,0,0,0.05,11.65,0)" xlink:href="#W"/><use transform="matrix(0.05,0,0,0.05,15.600000000000001,0)" xlink:href="#M"/><use transform="matrix(0.05,0,0,0.05,25.6,0)" xlink:href="#Y"/></g><g id="C"><use transform="matrix(0.05,0,0,0.05,0,0)" xlink:href="#ad"/><use transform="matrix(0.05,0,0,0.05,12,0)" xlink:href="#W"/><use transform="matrix(0.05,0,0,0.05,15.949999999999998,0)" xlink:href="#L"/><use transform="matrix(0.05,0,0,0.05,19.9,0)" xlink:href="#L"/></g><g id="D"><use transform="matrix(0.05,0,0,0.05,0,0)" xlink:href="#ah"/><use transform="matrix(0.05,0,0,0.05,12.950000000000001,0)" xlink:href="#ag"/><use transform="matrix(0.05,0,0,0.05,22.950000000000003,0)" xlink:href="#R"/><use transform="matrix(0.05,0,0,0.05,32.95,0)" xlink:href="#S"/><use transform="matrix(0.05,0,0,0.05,37.95,0)" xlink:href="#K"/><use transform="matrix(0.05,0,0,0.05,47.95,0)" xlink:href="#Z"/><use transform="matrix(0.05,0,0,0.05,56.95,0)" xlink:href="#S"/></g><g id="E"><use transform="matrix(0.05,0,0,0.05,0,0)" xlink:href="#ah"/><use transform="matrix(0.05,0,0,0.05,12.950000000000001,0)" xlink:href="#ai"/><use transform="matrix(0.05,0,0,0.05,22.950000000000003,0)" xlink:href="#N"/><use transform="matrix(0.05,0,0,0.05,31.950000000000003,0)" xlink:href="#S"/><use transform="matrix(0.05,0,0,0.05,36.95,0)" xlink:href="#ag"/><use transform="matrix(0.05,0,0,0.05,46.95,0)" xlink:href="#V"/><use transform="matrix(0.05,0,0,0.05,61.900000000000006,0)" xlink:href="#M"/><use transform="matrix(0.05,0,0,0.05,71.9,0)" xlink:href="#Q"/></g><g id="F"><use transform="matrix(0.05,0,0,0.05,0,0)" xlink:href="#J"/><use transform="matrix(0.05,0,0,0.05,12,0)" xlink:href="#ai"/><use transform="matrix(0.05,0,0,0.05,22,0)" xlink:href="#P"/><use transform="matrix(0.05,0,0,0.05,32,0)" xlink:href="#M"/><use transform="matrix(0.05,0,0,0.05,42,0)" xlink:href="#Q"/></g><g id="G"><use transform="matrix(0.05,0,0,0.05,0,0)" xlink:href="#T"/><use transform="matrix(0.05,0,0,0.05,12,0)" xlink:href="#U"/><use transform="matrix(0.05,0,0,0.05,22,0)" xlink:href="#V"/><use transform="matrix(0.05,0,0,0.05,36.95,0)" xlink:href="#W"/><use transform="matrix(0.05,0,0,0.05,40.900000000000006,0)" xlink:href="#R"/></g><path d="M30-248c87 1 191-15 191 75 0 78-77 80-158 76V0H30v-248zm33 125c57 0 124 11 124-50 0-59-68-47-124-48v98" id="aU"/><path d="M0 4l72-265h28L28 4H0" id="aV"/><g id="H"><use transform="matrix(0.05,0,0,0.05,0,0)" xlink:href="#aU"/><use transform="matrix(0.05,0,0,0.05,12,0)" xlink:href="#Q"/><use transform="matrix(0.05,0,0,0.05,17.95,0)" xlink:href="#ag"/><use transform="matrix(0.05,0,0,0.05,27.950000000000003,0)" xlink:href="#V"/><use transform="matrix(0.05,0,0,0.05,42.9,0)" xlink:href="#ag"/><use transform="matrix(0.05,0,0,0.05,52.900000000000006,0)" xlink:href="#S"/><use transform="matrix(0.05,0,0,0.05,57.900000000000006,0)" xlink:href="#M"/><use transform="matrix(0.05,0,0,0.05,67.9,0)" xlink:href="#aV"/><use transform="matrix(0.05,0,0,0.05,72.9,0)" xlink:href="#am"/><use transform="matrix(0.05,0,0,0.05,85.85000000000001,0)" xlink:href="#M"/><use transform="matrix(0.05,0,0,0.05,95.85000000000001,0)" xlink:href="#V"/><use transform="matrix(0.05,0,0,0.05,110.80000000000001,0)" xlink:href="#ag"/><use transform="matrix(0.05,0,0,0.05,120.80000000000001,0)" xlink:href="#S"/><use transform="matrix(0.05,0,0,0.05,125.80000000000001,0)" xlink:href="#M"/></g><path d="M30 0v-248h187v28H63v79h144v27H63v87h162V0H30" id="aW"/><g id="I"><use transform="matrix(0.05,0,0,0.05,0,0)" xlink:href="#aW"/><use transform="matrix(0.05,0,0,0.05,12,0)" xlink:href="#V"/><use transform="matrix(0.05,0,0,0.05,26.950000000000003,0)" xlink:href="#P"/><use transform="matrix(0.05,0,0,0.05,36.95,0)" xlink:href="#L"/><use transform="matrix(0.05,0,0,0.05,40.900000000000006,0)" xlink:href="#ag"/><use transform="matrix(0.05,0,0,0.05,50.900000000000006,0)" xlink:href="#al"/><use transform="matrix(0.05,0,0,0.05,59.900000000000006,0)" xlink:href="#M"/><use transform="matrix(0.05,0,0,0.05,69.9,0)" xlink:href="#M"/><use transform="matrix(0.05,0,0,0.05,79.9,0)" xlink:href="#N"/></g></defs></g></svg>