<svg xmlns="http://www.w3.org/2000/svg" xmlns:xlink="http://www.w3.org/1999/xlink" xmlns:lucid="lucid" width="1100" height="644.23"><g transform="translate(-560 -60)" lucid:page-tab-id="0_0"><path d="M0 0h1870.4v1323.2H0z" fill="#fff"/><path d="M780.45 88c0-4.42 3.58-8 8-8H1381c4.42 0 8 3.58 8 8v33.7c0 4.42-3.58 8-8 8H788.45c-4.42 0-8-3.58-8-8z" stroke="#000" stroke-opacity="0" stroke-width="2" fill="#fff" fill-opacity="0"/><use xlink:href="#a" transform="matrix(1,0,0,1,784.4519859370766,84) translate(153.26799457994582 28.844065040650406)"/><use xlink:href="#b" transform="matrix(1,0,0,1,784.4519859370766,84) translate(232.6717886178862 28.844065040650406)"/><use xlink:href="#c" transform="matrix(1,0,0,1,784.4519859370766,84) translate(360.6754019873532 28.844065040650406)"/><path d="M788.84 128.08h591.77M788.86 128.08h-4.02M1380.6 128.08h4" stroke="#b2b2b2" stroke-width="2" fill="none"/><path d="M780 135.85c0-4.42 3.58-8 8-8h593c4.42 0 8 3.58 8 8v5.93c0 4.42-3.58 8-8 8H788c-4.42 0-8-3.58-8-8z" stroke="#000" stroke-opacity="0" stroke-width="2" fill="#fff" fill-opacity="0"/><use xlink:href="#d" transform="matrix(1,0,0,1,784,131.85219512183482) translate(209.7844881687243 17.125925925925927)"/><use xlink:href="#e" transform="matrix(1,0,0,1,784,131.85219512183482) translate(274.84131430041157 17.125925925925927)"/><use xlink:href="#f" transform="matrix(1,0,0,1,784,131.85219512183482) translate(289.5380375514403 17.125925925925927)"/><use xlink:href="#g" transform="matrix(1,0,0,1,784,131.85219512183482) translate(328.61226080246917 17.125925925925927)"/><use xlink:href="#h" transform="matrix(1,0,0,1,784,131.85219512183482) translate(358.70793981481484 17.125925925925927)"/><path d="M1239.7 445.23h160v120h-160z" stroke="#000" stroke-width="2" fill="#fff"/><use xlink:href="#i" transform="matrix(1,0,0,1,1247.700000000027,453.2332009127445) translate(11.174999999999997 55.6)"/><use xlink:href="#j" transform="matrix(1,0,0,1,1247.700000000027,453.2332009127445) translate(40.02499999999999 55.6)"/><use xlink:href="#k" transform="matrix(1,0,0,1,1247.700000000027,453.2332009127445) translate(60.02499999999999 55.6)"/><path d="M1040 325.23h160v120h-160z" stroke="#000" stroke-width="2" fill="#fff"/><use xlink:href="#l" transform="matrix(1,0,0,1,1048,333.2332009127445) translate(49.05 55.6)"/><path d="M580 325.23h160v120H580z" stroke="#000" stroke-width="2" fill="#fff"/><use xlink:href="#m" transform="matrix(1,0,0,1,588,333.2332009127445) translate(49.525 44.8)"/><use xlink:href="#n" transform="matrix(1,0,0,1,588,333.2332009127445) translate(11.574999999999996 66.4)"/><path d="M962 385.23h58.5" stroke="#000" stroke-width="2" fill="none"/><path d="M962.03 386.23H961v-2h1.03z"/><path d="M1035.76 385.23l-14.26 4.64v-9.27z" stroke="#000" stroke-width="2"/><use xlink:href="#o" transform="matrix(1,0,0,1,960.0000000000698,389.2332009127445) translate(0 14.4)"/><use xlink:href="#o" transform="matrix(1,0,0,1,1029,359.63320091274454) translate(0 14.4)"/><path d="M742 385.23h38.2" stroke="#000" stroke-width="2" fill="none"/><path d="M742.03 386.23H741v-2h1.03z"/><path d="M795.46 385.23l-14.26 4.64v-9.27z" stroke="#000" stroke-width="2"/><use xlink:href="#o" transform="matrix(1,0,0,1,741,389.2332009127445) translate(0 14.4)"/><use xlink:href="#p" transform="matrix(1,0,0,1,771.984671501309,359.63320091274454) translate(0 14.4)"/><path d="M580 167.5h160v120H580z" stroke="#000" stroke-width="2" fill="#fff"/><path d="M580 205h160" stroke="#000" stroke-width="2" fill="none"/><use xlink:href="#q" transform="matrix(1,0,0,1,588,167.5060313506665) translate(33.074999999999996 22.6)"/><use xlink:href="#r" transform="matrix(1,0,0,1,592,213.10603135066648) translate(0 26.299999999999997)"/><use xlink:href="#s" transform="matrix(1,0,0,1,592,213.10603135066648) translate(0 47.9)"/><path d="M864 295.73v-24.86h.27V227.5H742" stroke="#000" stroke-width="2" fill="none"/><path d="M864 311l-4.63-14.27h9.27z" stroke="#000" stroke-width="2"/><path d="M742.03 228.5H741v-2h1.03z"/><use xlink:href="#p" transform="matrix(1,0,0,1,872.003864168689,293.4332009127445) translate(0 14.4)"/><use xlink:href="#o" transform="matrix(1,0,0,1,741,231.5060313506665) translate(0 14.4)"/><path d="M1319.7 425.73v-40.5H1202" stroke="#000" stroke-width="2" fill="none"/><path d="M1319.7 441l-4.64-14.27h9.28z" stroke="#000" stroke-width="2"/><path d="M1202.03 386.23H1201v-2h1.03z"/><use xlink:href="#o" transform="matrix(1,0,0,1,1327.700000000027,422.9920578580229) translate(0 14.4)"/><use xlink:href="#o" transform="matrix(1,0,0,1,1201,389.2332009127445) translate(0 14.4)"/><path d="M1401.7 505.23h58.8" stroke="#000" stroke-width="2" fill="none"/><path d="M1401.73 506.23h-1.03v-2h1.03z"/><path d="M1475.76 505.23l-14.26 4.64v-9.27z" stroke="#000" stroke-width="2"/><use xlink:href="#o" transform="matrix(1,0,0,1,1400.700000000027,509.2332009127445) translate(0 14.4)"/><path d="M1480 445.23h160v120h-160z" stroke="#000" stroke-width="2" fill="#fff"/><use xlink:href="#t" transform="matrix(1,0,0,1,1488,453.2332009127445) translate(49.5 55.6)"/><path d="M799.7 315.23H960v140H799.7z" stroke="#000" stroke-width="2" fill="#fff"/><path d="M799.7 353H960" stroke="#000" stroke-width="2" fill="none"/><use xlink:href="#u" transform="matrix(1,0,0,1,807.7000000000698,315.2332009127445) translate(51.525 22.6)"/><use xlink:href="#v" transform="matrix(1,0,0,1,811.7000000000698,360.83320091274453) translate(0 25.5)"/><use xlink:href="#w" transform="matrix(1,0,0,1,811.7000000000698,360.83320091274453) translate(0 47.1)"/><use xlink:href="#x" transform="matrix(1,0,0,1,811.7000000000698,360.83320091274453) translate(69.9 47.1)"/><use xlink:href="#y" transform="matrix(1,0,0,1,811.7000000000698,360.83320091274453) translate(0 68.7)"/><use xlink:href="#z" transform="matrix(1,0,0,1,811.7000000000698,360.83320091274453) translate(47 68.7)"/><path d="M1202 624.23h117.7v-40.5" stroke="#000" stroke-width="2" fill="none"/><path d="M1202.03 625.23H1201v-2h1.03z"/><path d="M1319.7 568.47l4.64 14.27h-9.28z" stroke="#000" stroke-width="2"/><use xlink:href="#A" transform="matrix(1,0,0,1,1201,628.2332009127445) translate(0 14.4)"/><use xlink:href="#A" transform="matrix(1,0,0,1,1301.700000000027,570.2666666666667) translate(0 14.4)"/><path d="M660 562.23v-98.5" stroke="#000" stroke-width="2" fill="none"/><path d="M661 563.23h-2v-1.02h2z"/><path d="M660 448.47l4.64 14.27h-9.28z" stroke="#000" stroke-width="2"/><use xlink:href="#o" transform="matrix(1,0,0,1,667.9999999999811,542.4332009127445) translate(0 14.4)"/><use xlink:href="#p" transform="matrix(1,0,0,1,625,434.43420091270787) translate(0 14.4)"/><path d="M742 624.23h38.5" stroke="#000" stroke-width="2" fill="none"/><path d="M742.03 625.23H741v-2h1.03z"/><path d="M795.76 624.23l-14.26 4.64v-9.27z" stroke="#000" stroke-width="2"/><use xlink:href="#o" transform="matrix(1,0,0,1,741,628.2332009127445) translate(0 14.4)"/><use xlink:href="#B" transform="matrix(1,0,0,1,792.5,598.6332009127445) translate(0 14.4)"/><path d="M800 564.23h160v120H800z" stroke="#000" stroke-width="2" fill="#fff"/><use xlink:href="#C" transform="matrix(1,0,0,1,808,572.2332009127445) translate(0.42499999999999716 55.6)"/><use xlink:href="#D" transform="matrix(1,0,0,1,808,572.2332009127445) translate(50.375 55.6)"/><path d="M962 624.23h58.5" stroke="#000" stroke-width="2" fill="none"/><path d="M962.03 625.23H961v-2h1.03z"/><path d="M1035.76 624.23l-14.26 4.64v-9.27z" stroke="#000" stroke-width="2"/><g><use xlink:href="#o" transform="matrix(1,0,0,1,961,628.2332009127445) translate(0 14.4)"/></g><g><use xlink:href="#o" transform="matrix(1,0,0,1,1029,598.6332009127445) translate(0 14.4)"/></g><path d="M1040 564.23h160v120h-160z" stroke="#000" stroke-width="2" fill="#fff"/><g><use xlink:href="#E" transform="matrix(1,0,0,1,1048,572.2332009127445) translate(41.55 55.6)"/></g><path d="M580 564.23h160v120H580z" stroke="#000" stroke-width="2" fill="#fff"/><g><use xlink:href="#F" transform="matrix(1,0,0,1,588,572.2332009127445) translate(22.574999999999996 55.6)"/></g><path d="M1120 446.23V520h-120v-10H880v34.73M1120 446.26v-1.03" stroke="#000" stroke-width="2" fill="none"/><path d="M880 560l-4.64-14.27h9.28z" stroke="#000" stroke-width="2"/><g><use xlink:href="#A" transform="matrix(1,0,0,1,1102,448.9333333333333) translate(0 14.4)"/></g><g><use xlink:href="#A" transform="matrix(1,0,0,1,888,542.4332009127447) translate(0 14.4)"/></g><defs><path fill="#b2b2b2" d="M76-208v77h127v40H76V0H24v-248h183v40H76" id="G"/><path fill="#b2b2b2" d="M140-251c80 0 125 45 125 126S219 4 139 4C58 4 15-44 15-125s44-126 125-126zm-1 214c52 0 73-35 73-88 0-50-21-86-72-86-52 0-73 35-73 86s22 88 72 88" id="H"/><path fill="#b2b2b2" d="M67-125c0 54 23 88 75 88 28 0 53-7 68-21v-34h-60v-39h108v91C232-14 192 4 140 4 58 4 20-42 15-125 8-236 126-280 215-234c19 10 29 26 37 47l-47 15c-11-23-29-39-63-39-53 1-75 33-75 86" id="I"/><g id="a"><use transform="matrix(0.09033423667570009,0,0,0.09033423667570009,0,0)" xlink:href="#G"/><use transform="matrix(0.09033423667570009,0,0,0.09033423667570009,19.78319783197832,0)" xlink:href="#H"/><use transform="matrix(0.09033423667570009,0,0,0.09033423667570009,45.07678410117435,0)" xlink:href="#I"/></g><path fill="#b2b2b2" d="M24-248c120-7 223 5 221 122C244-46 201 0 124 0H24v-248zM76-40c74 7 117-18 117-86 0-67-45-88-117-82v168" id="J"/><path fill="#b2b2b2" d="M110-194c64 0 96 36 96 99 0 64-35 99-97 99-61 0-95-36-95-99 0-62 34-99 96-99zm-1 164c35 0 45-28 45-65 0-40-10-65-43-65-34 0-45 26-45 65 0 36 10 65 43 65" id="K"/><path fill="#b2b2b2" d="M220-157c-53 9-28 100-34 157h-49v-107c1-27-5-49-29-50C55-147 81-57 75 0H25l-1-190h47c2 12-1 28 3 38 10-53 101-56 108 0 13-22 24-43 59-42 82 1 51 116 57 194h-49v-107c-1-25-5-48-29-50" id="L"/><path fill="#b2b2b2" d="M133-34C117-15 103 5 69 4 32 3 11-16 11-54c-1-60 55-63 116-61 1-26-3-47-28-47-18 1-26 9-28 27l-52-2c7-38 36-58 82-57s74 22 75 68l1 82c-1 14 12 18 25 15v27c-30 8-71 5-69-32zm-48 3c29 0 43-24 42-57-32 0-66-3-65 30 0 17 8 27 23 27" id="M"/><path fill="#b2b2b2" d="M25-224v-37h50v37H25zM25 0v-190h50V0H25" id="N"/><path fill="#b2b2b2" d="M135-194c87-1 58 113 63 194h-50c-7-57 23-157-34-157-59 0-34 97-39 157H25l-1-190h47c2 12-1 28 3 38 12-26 28-41 61-42" id="O"/><g id="b"><use transform="matrix(0.09033423667570009,0,0,0.09033423667570009,0,0)" xlink:href="#J"/><use transform="matrix(0.09033423667570009,0,0,0.09033423667570009,23.396567299006325,0)" xlink:href="#K"/><use transform="matrix(0.09033423667570009,0,0,0.09033423667570009,43.17976513098465,0)" xlink:href="#L"/><use transform="matrix(0.09033423667570009,0,0,0.09033423667570009,72.08672086720867,0)" xlink:href="#M"/><use transform="matrix(0.09033423667570009,0,0,0.09033423667570009,90.15356820234868,0)" xlink:href="#N"/><use transform="matrix(0.09033423667570009,0,0,0.09033423667570009,99.18699186991869,0)" xlink:href="#O"/></g><path fill="#b2b2b2" d="M230 0l2-204L168 0h-37L68-204 70 0H24v-248h70l56 185 57-185h69V0h-46" id="P"/><path fill="#b2b2b2" d="M88-194c31-1 46 15 58 34l-1-101h50l1 261h-48c-2-10 0-23-3-31C134-8 116 4 84 4 32 4 16-41 15-95c0-56 19-97 73-99zm17 164c33 0 40-30 41-66 1-37-9-64-41-64s-38 30-39 65c0 43 13 65 39 65" id="Q"/><path fill="#b2b2b2" d="M185-48c-13 30-37 53-82 52C43 2 14-33 14-96s30-98 90-98c62 0 83 45 84 108H66c0 31 8 55 39 56 18 0 30-7 34-22zm-45-69c5-46-57-63-70-21-2 6-4 13-4 21h74" id="R"/><path fill="#b2b2b2" d="M25 0v-261h50V0H25" id="S"/><g id="c"><use transform="matrix(0.09033423667570009,0,0,0.09033423667570009,0,0)" xlink:href="#P"/><use transform="matrix(0.09033423667570009,0,0,0.09033423667570009,27.00993676603433,0)" xlink:href="#K"/><use transform="matrix(0.09033423667570009,0,0,0.09033423667570009,46.79313459801265,0)" xlink:href="#Q"/><use transform="matrix(0.09033423667570009,0,0,0.09033423667570009,66.57633242999097,0)" xlink:href="#R"/><use transform="matrix(0.09033423667570009,0,0,0.09033423667570009,84.64317976513098,0)" xlink:href="#S"/></g><path fill="#b2b2b2" d="M240 0l2-218c-23 76-54 145-80 218h-23L58-218 59 0H30v-248h44l77 211c21-75 51-140 76-211h43V0h-30" id="T"/><path fill="#b2b2b2" d="M141-36C126-15 110 5 73 4 37 3 15-17 15-53c-1-64 63-63 125-63 3-35-9-54-41-54-24 1-41 7-42 31l-33-3c5-37 33-52 76-52 45 0 72 20 72 64v82c-1 20 7 32 28 27v20c-31 9-61-2-59-35zM48-53c0 20 12 33 32 33 41-3 63-29 60-74-43 2-92-5-92 41" id="U"/><path fill="#b2b2b2" d="M114-163C36-179 61-72 57 0H25l-1-190h30c1 12-1 29 2 39 6-27 23-49 58-41v29" id="V"/><path fill="#b2b2b2" d="M59-47c-2 24 18 29 38 22v24C64 9 27 4 27-40v-127H5v-23h24l9-43h21v43h35v23H59v120" id="W"/><path fill="#b2b2b2" d="M24-231v-30h32v30H24zM24 0v-190h32V0H24" id="X"/><path fill="#b2b2b2" d="M117-194c89-4 53 116 60 194h-32v-121c0-31-8-49-39-48C34-167 62-67 57 0H25l-1-190h30c1 10-1 24 2 32 11-22 29-35 61-36" id="Y"/><g id="d"><use transform="matrix(0.05015946502057613,0,0,0.05015946502057613,0,0)" xlink:href="#T"/><use transform="matrix(0.05015946502057613,0,0,0.05015946502057613,14.997680041152263,0)" xlink:href="#U"/><use transform="matrix(0.05015946502057613,0,0,0.05015946502057613,25.02957304526749,0)" xlink:href="#V"/><use transform="matrix(0.05015946502057613,0,0,0.05015946502057613,30.99854938271605,0)" xlink:href="#W"/><use transform="matrix(0.05015946502057613,0,0,0.05015946502057613,36.014495884773666,0)" xlink:href="#X"/><use transform="matrix(0.05015946502057613,0,0,0.05015946502057613,39.97709362139918,0)" xlink:href="#Y"/></g><path fill="#b2b2b2" d="M32 76v-337h29V76H32" id="Z"/><use transform="matrix(0.05015946502057613,0,0,0.05015946502057613,0,0)" xlink:href="#Z" id="e"/><path fill="#b2b2b2" d="M179-190L93 31C79 59 56 82 12 73V49c39 6 53-20 64-50L1-190h34L92-34l54-156h33" id="aa"/><g id="f"><use transform="matrix(0.05015946502057613,0,0,0.05015946502057613,0,0)" xlink:href="#T"/><use transform="matrix(0.05015946502057613,0,0,0.05015946502057613,14.997680041152263,0)" xlink:href="#U"/><use transform="matrix(0.05015946502057613,0,0,0.05015946502057613,25.02957304526749,0)" xlink:href="#aa"/></g><path fill="#b2b2b2" d="M101-251c82-7 93 87 43 132L82-64C71-53 59-42 53-27h129V0H18c2-99 128-94 128-182 0-28-16-43-45-43s-46 15-49 41l-32-3c6-41 34-60 81-64" id="ab"/><path fill="#b2b2b2" d="M68-38c1 34 0 65-14 84H32c9-13 17-26 17-46H33v-38h35" id="ac"/><g id="g"><use transform="matrix(0.05015946502057613,0,0,0.05015946502057613,0,0)" xlink:href="#ab"/><use transform="matrix(0.05015946502057613,0,0,0.05015946502057613,10.031893004115226,0)" xlink:href="#ab"/><use transform="matrix(0.05015946502057613,0,0,0.05015946502057613,20.06378600823045,0)" xlink:href="#ac"/></g><path fill="#b2b2b2" d="M101-251c68 0 85 55 85 127S166 4 100 4C33 4 14-52 14-124c0-73 17-127 87-127zm-1 229c47 0 54-49 54-102s-4-102-53-102c-51 0-55 48-55 102 0 53 5 102 54 102" id="ad"/><path fill="#b2b2b2" d="M27 0v-27h64v-190l-56 39v-29l58-41h29v221h61V0H27" id="ae"/><path fill="#b2b2b2" d="M99-251c64 0 84 50 84 122C183-37 130 33 47-8c-14-7-20-23-25-40l30-5c6 39 69 39 84 7 9-19 16-44 16-74-10 22-31 35-62 35-49 0-73-33-73-83 0-54 28-83 82-83zm-1 141c31-1 51-18 51-49 0-36-14-67-51-67-34 0-49 23-49 58 0 34 15 58 49 58" id="af"/><g id="h"><use transform="matrix(0.05015946502057613,0,0,0.05015946502057613,0,0)" xlink:href="#ab"/><use transform="matrix(0.05015946502057613,0,0,0.05015946502057613,10.031893004115226,0)" xlink:href="#ad"/><use transform="matrix(0.05015946502057613,0,0,0.05015946502057613,20.06378600823045,0)" xlink:href="#ae"/><use transform="matrix(0.05015946502057613,0,0,0.05015946502057613,30.09567901234568,0)" xlink:href="#af"/></g><path d="M160-131c35 5 61 23 61 61C221 17 115-2 30 0v-248c76 3 177-17 177 60 0 33-19 50-47 57zm-97-11c50-1 110 9 110-42 0-47-63-36-110-37v79zm0 115c55-2 124 14 124-45 0-56-70-42-124-44v89" id="ag"/><path d="M24-231v-30h32v30H24zM24 0v-190h32V0H24" id="ah"/><path d="M24 0v-261h32V0H24" id="ai"/><g id="i"><use transform="matrix(0.05,0,0,0.05,0,0)" xlink:href="#ag"/><use transform="matrix(0.05,0,0,0.05,12,0)" xlink:href="#ah"/><use transform="matrix(0.05,0,0,0.05,15.949999999999998,0)" xlink:href="#ai"/><use transform="matrix(0.05,0,0,0.05,19.9,0)" xlink:href="#ai"/></g><path d="M100-194c62-1 85 37 85 99 1 63-27 99-86 99S16-35 15-95c0-66 28-99 85-99zM99-20c44 1 53-31 53-75 0-43-8-75-51-75s-53 32-53 75 10 74 51 75" id="aj"/><path d="M101-234c-31-9-42 10-38 44h38v23H63V0H32v-167H5v-23h27c-7-52 17-82 69-68v24" id="ak"/><g id="j"><use transform="matrix(0.05,0,0,0.05,0,0)" xlink:href="#aj"/><use transform="matrix(0.05,0,0,0.05,10,0)" xlink:href="#ak"/></g><path d="M240 0l2-218c-23 76-54 145-80 218h-23L58-218 59 0H30v-248h44l77 211c21-75 51-140 76-211h43V0h-30" id="al"/><path d="M141-36C126-15 110 5 73 4 37 3 15-17 15-53c-1-64 63-63 125-63 3-35-9-54-41-54-24 1-41 7-42 31l-33-3c5-37 33-52 76-52 45 0 72 20 72 64v82c-1 20 7 32 28 27v20c-31 9-61-2-59-35zM48-53c0 20 12 33 32 33 41-3 63-29 60-74-43 2-92-5-92 41" id="am"/><path d="M59-47c-2 24 18 29 38 22v24C64 9 27 4 27-40v-127H5v-23h24l9-43h21v43h35v23H59v120" id="an"/><path d="M100-194c63 0 86 42 84 106H49c0 40 14 67 53 68 26 1 43-12 49-29l28 8c-11 28-37 45-77 45C44 4 14-33 15-96c1-61 26-98 85-98zm52 81c6-60-76-77-97-28-3 7-6 17-6 28h103" id="ao"/><path d="M114-163C36-179 61-72 57 0H25l-1-190h30c1 12-1 29 2 39 6-27 23-49 58-41v29" id="ap"/><path d="M135-143c-3-34-86-38-87 0 15 53 115 12 119 90S17 21 10-45l28-5c4 36 97 45 98 0-10-56-113-15-118-90-4-57 82-63 122-42 12 7 21 19 24 35" id="aq"/><g id="k"><use transform="matrix(0.05,0,0,0.05,0,0)" xlink:href="#al"/><use transform="matrix(0.05,0,0,0.05,14.950000000000001,0)" xlink:href="#am"/><use transform="matrix(0.05,0,0,0.05,24.950000000000003,0)" xlink:href="#an"/><use transform="matrix(0.05,0,0,0.05,29.950000000000003,0)" xlink:href="#ao"/><use transform="matrix(0.05,0,0,0.05,39.95,0)" xlink:href="#ap"/><use transform="matrix(0.05,0,0,0.05,45.900000000000006,0)" xlink:href="#ah"/><use transform="matrix(0.05,0,0,0.05,49.85000000000001,0)" xlink:href="#am"/><use transform="matrix(0.05,0,0,0.05,59.85,0)" xlink:href="#ai"/><use transform="matrix(0.05,0,0,0.05,63.80000000000001,0)" xlink:href="#aq"/></g><path d="M140-251c81 0 123 46 123 126C263-46 219 4 140 4 59 4 17-45 17-125s42-126 123-126zm0 227c63 0 89-41 89-101s-29-99-89-99c-61 0-89 39-89 99S79-25 140-24" id="ar"/><path d="M85-194c31 0 48 13 60 33l-1-100h32l1 261h-30c-2-10 0-23-3-31C134-8 116 4 85 4 32 4 16-35 15-94c0-66 23-100 70-100zm9 24c-40 0-46 34-46 75 0 40 6 74 45 74 42 0 51-32 51-76 0-42-9-74-50-73" id="as"/><g id="l"><use transform="matrix(0.05,0,0,0.05,0,0)" xlink:href="#ar"/><use transform="matrix(0.05,0,0,0.05,14,0)" xlink:href="#ap"/><use transform="matrix(0.05,0,0,0.05,19.95,0)" xlink:href="#as"/><use transform="matrix(0.05,0,0,0.05,29.950000000000003,0)" xlink:href="#ao"/><use transform="matrix(0.05,0,0,0.05,39.95,0)" xlink:href="#ap"/></g><path d="M185-189c-5-48-123-54-124 2 14 75 158 14 163 119 3 78-121 87-175 55-17-10-28-26-33-46l33-7c5 56 141 63 141-1 0-78-155-14-162-118-5-82 145-84 179-34 5 7 8 16 11 25" id="at"/><g id="m"><use transform="matrix(0.05,0,0,0.05,0,0)" xlink:href="#at"/><use transform="matrix(0.05,0,0,0.05,12,0)" xlink:href="#am"/><use transform="matrix(0.05,0,0,0.05,22,0)" xlink:href="#ai"/><use transform="matrix(0.05,0,0,0.05,25.950000000000003,0)" xlink:href="#ao"/><use transform="matrix(0.05,0,0,0.05,35.95,0)" xlink:href="#aq"/></g><path d="M233-177c-1 41-23 64-60 70L243 0h-38l-65-103H63V0H30v-248c88 3 205-21 203 71zM63-129c60-2 137 13 137-47 0-61-80-42-137-45v92" id="au"/><path d="M115-194c55 1 70 41 70 98S169 2 115 4C84 4 66-9 55-30l1 105H24l-1-265h31l2 30c10-21 28-34 59-34zm-8 174c40 0 45-34 45-75s-6-73-45-74c-42 0-51 32-51 76 0 43 10 73 51 73" id="av"/><path d="M117-194c89-4 53 116 60 194h-32v-121c0-31-8-49-39-48C34-167 62-67 57 0H25l-1-190h30c1 10-1 24 2 32 11-22 29-35 61-36" id="aw"/><path d="M108 0H70L1-190h34L89-25l56-165h34" id="ax"/><g id="n"><use transform="matrix(0.05,0,0,0.05,0,0)" xlink:href="#au"/><use transform="matrix(0.05,0,0,0.05,12.950000000000001,0)" xlink:href="#ao"/><use transform="matrix(0.05,0,0,0.05,22.950000000000003,0)" xlink:href="#av"/><use transform="matrix(0.05,0,0,0.05,32.95,0)" xlink:href="#ap"/><use transform="matrix(0.05,0,0,0.05,38.900000000000006,0)" xlink:href="#ao"/><use transform="matrix(0.05,0,0,0.05,48.900000000000006,0)" xlink:href="#aq"/><use transform="matrix(0.05,0,0,0.05,57.900000000000006,0)" xlink:href="#ao"/><use transform="matrix(0.05,0,0,0.05,67.9,0)" xlink:href="#aw"/><use transform="matrix(0.05,0,0,0.05,77.9,0)" xlink:href="#an"/><use transform="matrix(0.05,0,0,0.05,82.9,0)" xlink:href="#am"/><use transform="matrix(0.05,0,0,0.05,92.9,0)" xlink:href="#an"/><use transform="matrix(0.05,0,0,0.05,97.9,0)" xlink:href="#ah"/><use transform="matrix(0.05,0,0,0.05,101.85000000000001,0)" xlink:href="#ax"/><use transform="matrix(0.05,0,0,0.05,110.85000000000001,0)" xlink:href="#ao"/></g><path d="M27 0v-27h64v-190l-56 39v-29l58-41h29v221h61V0H27" id="ay"/><use transform="matrix(0.05,0,0,0.05,0,0)" xlink:href="#ay" id="o"/><path d="M101-251c68 0 85 55 85 127S166 4 100 4C33 4 14-52 14-124c0-73 17-127 87-127zm-1 229c47 0 54-49 54-102s-4-102-53-102c-51 0-55 48-55 102 0 53 5 102 54 102" id="az"/><path d="M33 0v-38h34V0H33" id="aA"/><path d="M80-196l47-18 7 23-49 13 32 44-20 13-27-46-27 45-21-12 33-44-49-13 8-23 47 19-2-53h23" id="aB"/><g id="p"><use transform="matrix(0.05,0,0,0.05,0,0)" xlink:href="#az"/><use transform="matrix(0.05,0,0,0.05,10,0)" xlink:href="#aA"/><use transform="matrix(0.05,0,0,0.05,15,0)" xlink:href="#aA"/><use transform="matrix(0.05,0,0,0.05,20,0)" xlink:href="#aB"/></g><path d="M212-179c-10-28-35-45-73-45-59 0-87 40-87 99 0 60 29 101 89 101 43 0 62-24 78-52l27 14C228-24 195 4 139 4 59 4 22-46 18-125c-6-104 99-153 187-111 19 9 31 26 39 46" id="aC"/><path d="M84 4C-5 8 30-112 23-190h32v120c0 31 7 50 39 49 72-2 45-101 50-169h31l1 190h-30c-1-10 1-25-2-33-11 22-28 36-60 37" id="aD"/><path d="M210-169c-67 3-38 105-44 169h-31v-121c0-29-5-50-35-48C34-165 62-65 56 0H25l-1-190h30c1 10-1 24 2 32 10-44 99-50 107 0 11-21 27-35 58-36 85-2 47 119 55 194h-31v-121c0-29-5-49-35-48" id="aE"/><g id="q"><use transform="matrix(0.05,0,0,0.05,0,0)" xlink:href="#aC"/><use transform="matrix(0.05,0,0,0.05,12.950000000000001,0)" xlink:href="#aD"/><use transform="matrix(0.05,0,0,0.05,22.950000000000003,0)" xlink:href="#aq"/><use transform="matrix(0.05,0,0,0.05,31.950000000000003,0)" xlink:href="#an"/><use transform="matrix(0.05,0,0,0.05,36.95,0)" xlink:href="#aj"/><use transform="matrix(0.05,0,0,0.05,46.95,0)" xlink:href="#aE"/><use transform="matrix(0.05,0,0,0.05,61.900000000000006,0)" xlink:href="#ao"/><use transform="matrix(0.05,0,0,0.05,71.9,0)" xlink:href="#ap"/></g><path d="M30 0v-248h187v28H63v79h144v27H63v87h162V0H30" id="aF"/><g id="r"><use transform="matrix(0.05,0,0,0.05,0,0)" xlink:href="#aF"/><use transform="matrix(0.05,0,0,0.05,12,0)" xlink:href="#aE"/><use transform="matrix(0.05,0,0,0.05,26.950000000000003,0)" xlink:href="#am"/><use transform="matrix(0.05,0,0,0.05,36.95,0)" xlink:href="#ah"/><use transform="matrix(0.05,0,0,0.05,40.900000000000006,0)" xlink:href="#ai"/></g><path d="M205 0l-28-72H64L36 0H1l101-248h38L239 0h-34zm-38-99l-47-123c-12 45-31 82-46 123h93" id="aG"/><g id="s"><use transform="matrix(0.05,0,0,0.05,0,0)" xlink:href="#aG"/><use transform="matrix(0.05,0,0,0.05,12,0)" xlink:href="#as"/><use transform="matrix(0.05,0,0,0.05,22,0)" xlink:href="#as"/><use transform="matrix(0.05,0,0,0.05,32,0)" xlink:href="#ap"/><use transform="matrix(0.05,0,0,0.05,37.95,0)" xlink:href="#ao"/><use transform="matrix(0.05,0,0,0.05,47.95,0)" xlink:href="#aq"/><use transform="matrix(0.05,0,0,0.05,56.95,0)" xlink:href="#aq"/></g><path d="M96-169c-40 0-48 33-48 73s9 75 48 75c24 0 41-14 43-38l32 2c-6 37-31 61-74 61-59 0-76-41-82-99-10-93 101-131 147-64 4 7 5 14 7 22l-32 3c-4-21-16-35-41-35" id="aH"/><path d="M143 0L79-87 56-68V0H24v-261h32v163l83-92h37l-77 82L181 0h-38" id="aI"/><g id="t"><use transform="matrix(0.05,0,0,0.05,0,0)" xlink:href="#at"/><use transform="matrix(0.05,0,0,0.05,12,0)" xlink:href="#an"/><use transform="matrix(0.05,0,0,0.05,17,0)" xlink:href="#aj"/><use transform="matrix(0.05,0,0,0.05,27,0)" xlink:href="#aH"/><use transform="matrix(0.05,0,0,0.05,36,0)" xlink:href="#aI"/></g><g id="u"><use transform="matrix(0.05,0,0,0.05,0,0)" xlink:href="#aC"/><use transform="matrix(0.05,0,0,0.05,12.950000000000001,0)" xlink:href="#am"/><use transform="matrix(0.05,0,0,0.05,22.950000000000003,0)" xlink:href="#aq"/><use transform="matrix(0.05,0,0,0.05,31.950000000000003,0)" xlink:href="#ao"/></g><g id="v"><use transform="matrix(0.05,0,0,0.05,0,0)" xlink:href="#at"/><use transform="matrix(0.05,0,0,0.05,12,0)" xlink:href="#an"/><use transform="matrix(0.05,0,0,0.05,17,0)" xlink:href="#am"/><use transform="matrix(0.05,0,0,0.05,27,0)" xlink:href="#an"/><use transform="matrix(0.05,0,0,0.05,32,0)" xlink:href="#aD"/><use transform="matrix(0.05,0,0,0.05,42,0)" xlink:href="#aq"/></g><g id="w"><use transform="matrix(0.05,0,0,0.05,0,0)" xlink:href="#au"/><use transform="matrix(0.05,0,0,0.05,12.950000000000001,0)" xlink:href="#ao"/><use transform="matrix(0.05,0,0,0.05,22.950000000000003,0)" xlink:href="#aH"/><use transform="matrix(0.05,0,0,0.05,31.950000000000003,0)" xlink:href="#ao"/><use transform="matrix(0.05,0,0,0.05,41.95,0)" xlink:href="#ah"/><use transform="matrix(0.05,0,0,0.05,45.900000000000006,0)" xlink:href="#ax"/><use transform="matrix(0.05,0,0,0.05,54.900000000000006,0)" xlink:href="#ao"/></g><path d="M30-248c118-7 216 8 213 122C240-48 200 0 122 0H30v-248zM63-27c89 8 146-16 146-99s-60-101-146-95v194" id="aJ"/><g id="x"><use transform="matrix(0.05,0,0,0.05,0,0)" xlink:href="#aJ"/><use transform="matrix(0.05,0,0,0.05,12.950000000000001,0)" xlink:href="#am"/><use transform="matrix(0.05,0,0,0.05,22.950000000000003,0)" xlink:href="#an"/><use transform="matrix(0.05,0,0,0.05,27.950000000000003,0)" xlink:href="#ao"/></g><g id="y"><use transform="matrix(0.05,0,0,0.05,0,0)" xlink:href="#at"/><use transform="matrix(0.05,0,0,0.05,12,0)" xlink:href="#ao"/><use transform="matrix(0.05,0,0,0.05,22,0)" xlink:href="#aw"/><use transform="matrix(0.05,0,0,0.05,32,0)" xlink:href="#as"/></g><g id="z"><use transform="matrix(0.05,0,0,0.05,0,0)" xlink:href="#aJ"/><use transform="matrix(0.05,0,0,0.05,12.950000000000001,0)" xlink:href="#am"/><use transform="matrix(0.05,0,0,0.05,22.950000000000003,0)" xlink:href="#an"/><use transform="matrix(0.05,0,0,0.05,27.950000000000003,0)" xlink:href="#ao"/></g><use transform="matrix(0.05,0,0,0.05,0,0)" xlink:href="#ay" id="A"/><use transform="matrix(0.05,0,0,0.05,0,0)" xlink:href="#aB" id="B"/><g id="C"><use transform="matrix(0.05,0,0,0.05,0,0)" xlink:href="#at"/><use transform="matrix(0.05,0,0,0.05,12,0)" xlink:href="#am"/><use transform="matrix(0.05,0,0,0.05,22,0)" xlink:href="#ai"/><use transform="matrix(0.05,0,0,0.05,25.950000000000003,0)" xlink:href="#ao"/><use transform="matrix(0.05,0,0,0.05,35.95,0)" xlink:href="#aq"/></g><path d="M127-220V0H93v-220H8v-28h204v28h-85" id="aK"/><g id="D"><use transform="matrix(0.05,0,0,0.05,0,0)" xlink:href="#aK"/><use transform="matrix(0.05,0,0,0.05,10.3,0)" xlink:href="#ap"/><use transform="matrix(0.05,0,0,0.05,16.25,0)" xlink:href="#am"/><use transform="matrix(0.05,0,0,0.05,26.25,0)" xlink:href="#aw"/><use transform="matrix(0.05,0,0,0.05,36.25,0)" xlink:href="#aq"/><use transform="matrix(0.05,0,0,0.05,45.25,0)" xlink:href="#am"/><use transform="matrix(0.05,0,0,0.05,55.25,0)" xlink:href="#aH"/><use transform="matrix(0.05,0,0,0.05,64.25,0)" xlink:href="#an"/><use transform="matrix(0.05,0,0,0.05,69.25,0)" xlink:href="#ah"/><use transform="matrix(0.05,0,0,0.05,73.2,0)" xlink:href="#aj"/><use transform="matrix(0.05,0,0,0.05,83.2,0)" xlink:href="#aw"/></g><g id="E"><use transform="matrix(0.05,0,0,0.05,0,0)" xlink:href="#au"/><use transform="matrix(0.05,0,0,0.05,12.950000000000001,0)" xlink:href="#ao"/><use transform="matrix(0.05,0,0,0.05,22.950000000000003,0)" xlink:href="#aH"/><use transform="matrix(0.05,0,0,0.05,31.950000000000003,0)" xlink:href="#ao"/><use transform="matrix(0.05,0,0,0.05,41.95,0)" xlink:href="#ah"/><use transform="matrix(0.05,0,0,0.05,45.900000000000006,0)" xlink:href="#av"/><use transform="matrix(0.05,0,0,0.05,55.900000000000006,0)" xlink:href="#an"/></g><g id="F"><use transform="matrix(0.05,0,0,0.05,0,0)" xlink:href="#at"/><use transform="matrix(0.05,0,0,0.05,12,0)" xlink:href="#aD"/><use transform="matrix(0.05,0,0,0.05,22,0)" xlink:href="#av"/><use transform="matrix(0.05,0,0,0.05,32,0)" xlink:href="#ao"/><use transform="matrix(0.05,0,0,0.05,42,0)" xlink:href="#ap"/><use transform="matrix(0.05,0,0,0.05,47.95,0)" xlink:href="#aG"/><use transform="matrix(0.05,0,0,0.05,59.95,0)" xlink:href="#as"/><use transform="matrix(0.05,0,0,0.05,69.95,0)" xlink:href="#aE"/><use transform="matrix(0.05,0,0,0.05,84.9,0)" xlink:href="#ah"/><use transform="matrix(0.05,0,0,0.05,88.85000000000001,0)" xlink:href="#aw"/></g></defs></g></svg>