<?xml version="1.0" encoding="UTF-8" standalone="no"?><svg xmlns="http://www.w3.org/2000/svg" xmlns:xlink="http://www.w3.org/1999/xlink" contentScriptType="application/ecmascript" contentStyleType="text/css" height="515px" preserveAspectRatio="none" style="width:617px;height:515px;" version="1.1" viewBox="0 0 617 515" width="617px" zoomAndPan="magnify"><defs><filter height="300%" id="f1jsa68i3vb739" width="300%" x="-1" y="-1"><feGaussianBlur result="blurOut" stdDeviation="2.0"/><feColorMatrix in="blurOut" result="blurOut2" type="matrix" values="0 0 0 0 0 0 0 0 0 0 0 0 0 0 0 0 0 0 .4 0"/><feOffset dx="4.0" dy="4.0" in="blurOut2" result="blurOut3"/><feBlend in="SourceGraphic" in2="blurOut3" mode="normal"/></filter></defs><g><text fill="#000000" font-family="sans-serif" font-size="14" font-weight="bold" lengthAdjust="spacingAndGlyphs" textLength="185" x="217.25" y="22.9951">FOG - Sekvens Diagram</text><line style="stroke: #A80036; stroke-width: 1.0; stroke-dasharray: 5.0,5.0;" x1="45" x2="45" y1="116.5938" y2="427.9219"/><line style="stroke: #A80036; stroke-width: 1.0; stroke-dasharray: 5.0,5.0;" x1="241" x2="241" y1="116.5938" y2="427.9219"/><line style="stroke: #A80036; stroke-width: 1.0; stroke-dasharray: 5.0,5.0;" x1="377.5" x2="377.5" y1="116.5938" y2="427.9219"/><line style="stroke: #A80036; stroke-width: 1.0; stroke-dasharray: 5.0,5.0;" x1="559.5" x2="559.5" y1="116.5938" y2="427.9219"/><text fill="#000000" font-family="sans-serif" font-size="14" lengthAdjust="spacingAndGlyphs" textLength="68" x="8" y="113.292">Customer</text><ellipse cx="45" cy="43.2969" fill="#FEFECE" filter="url(#f1jsa68i3vb739)" rx="8" ry="8" style="stroke: #A80036; stroke-width: 2.0;"/><path d="M45,51.2969 L45,78.2969 M32,59.2969 L58,59.2969 M45,78.2969 L32,93.2969 M45,78.2969 L58,93.2969 " fill="none" filter="url(#f1jsa68i3vb739)" style="stroke: #A80036; stroke-width: 2.0;"/><text fill="#000000" font-family="sans-serif" font-size="14" lengthAdjust="spacingAndGlyphs" textLength="68" x="8" y="439.917">Customer</text><ellipse cx="45" cy="453.2188" fill="#FEFECE" filter="url(#f1jsa68i3vb739)" rx="8" ry="8" style="stroke: #A80036; stroke-width: 2.0;"/><path d="M45,461.2188 L45,488.2188 M32,469.2188 L58,469.2188 M45,488.2188 L32,503.2188 M45,488.2188 L58,503.2188 " fill="none" filter="url(#f1jsa68i3vb739)" style="stroke: #A80036; stroke-width: 2.0;"/><text fill="#000000" font-family="sans-serif" font-size="14" lengthAdjust="spacingAndGlyphs" textLength="86" x="195" y="113.292">Fog Website</text><path d="M220.5,72.2969 L220.5,96.2969 M220.5,84.2969 L237.5,84.2969 " fill="none" filter="url(#f1jsa68i3vb739)" style="stroke: #A80036; stroke-width: 2.0;"/><ellipse cx="249.5" cy="84.2969" fill="#FEFECE" filter="url(#f1jsa68i3vb739)" rx="12" ry="12" style="stroke: #A80036; stroke-width: 2.0;"/><text fill="#000000" font-family="sans-serif" font-size="14" lengthAdjust="spacingAndGlyphs" textLength="86" x="195" y="439.917">Fog Website</text><path d="M220.5,447.2188 L220.5,471.2188 M220.5,459.2188 L237.5,459.2188 " fill="none" filter="url(#f1jsa68i3vb739)" style="stroke: #A80036; stroke-width: 2.0;"/><ellipse cx="249.5" cy="459.2188" fill="#FEFECE" filter="url(#f1jsa68i3vb739)" rx="12" ry="12" style="stroke: #A80036; stroke-width: 2.0;"/><text fill="#000000" font-family="sans-serif" font-size="14" lengthAdjust="spacingAndGlyphs" textLength="67" x="341.5" y="113.292">Controller</text><ellipse cx="378" cy="84.2969" fill="#FEFECE" filter="url(#f1jsa68i3vb739)" rx="12" ry="12" style="stroke: #A80036; stroke-width: 2.0;"/><polygon fill="#A80036" points="374,72.2969,380,67.2969,378,72.2969,380,77.2969,374,72.2969" style="stroke: #A80036; stroke-width: 1.0;"/><text fill="#000000" font-family="sans-serif" font-size="14" lengthAdjust="spacingAndGlyphs" textLength="67" x="341.5" y="439.917">Controller</text><ellipse cx="378" cy="459.2188" fill="#FEFECE" filter="url(#f1jsa68i3vb739)" rx="12" ry="12" style="stroke: #A80036; stroke-width: 2.0;"/><polygon fill="#A80036" points="374,447.2188,380,442.2188,378,447.2188,380,452.2188,374,447.2188" style="stroke: #A80036; stroke-width: 1.0;"/><text fill="#000000" font-family="sans-serif" font-size="14" lengthAdjust="spacingAndGlyphs" textLength="97" x="508.5" y="113.292">SQL Database</text><path d="M542,64.2969 C542,54.2969 560,54.2969 560,54.2969 C560,54.2969 578,54.2969 578,64.2969 L578,90.2969 C578,100.2969 560,100.2969 560,100.2969 C560,100.2969 542,100.2969 542,90.2969 L542,64.2969 " fill="#FEFECE" filter="url(#f1jsa68i3vb739)" style="stroke: #000000; stroke-width: 1.5;"/><path d="M542,64.2969 C542,74.2969 560,74.2969 560,74.2969 C560,74.2969 578,74.2969 578,64.2969 " fill="none" style="stroke: #000000; stroke-width: 1.5;"/><text fill="#000000" font-family="sans-serif" font-size="14" lengthAdjust="spacingAndGlyphs" textLength="97" x="508.5" y="439.917">SQL Database</text><path d="M542,453.2188 C542,443.2188 560,443.2188 560,443.2188 C560,443.2188 578,443.2188 578,453.2188 L578,479.2188 C578,489.2188 560,489.2188 560,489.2188 C560,489.2188 542,489.2188 542,479.2188 L542,453.2188 " fill="#FEFECE" filter="url(#f1jsa68i3vb739)" style="stroke: #000000; stroke-width: 1.5;"/><path d="M542,453.2188 C542,463.2188 560,463.2188 560,463.2188 C560,463.2188 578,463.2188 578,453.2188 " fill="none" style="stroke: #000000; stroke-width: 1.5;"/><polygon fill="#A80036" points="229,143.7266,239,147.7266,229,151.7266,233,147.7266" style="stroke: #A80036; stroke-width: 1.0;"/><line style="stroke: #A80036; stroke-width: 1.0;" x1="45" x2="235" y1="147.7266" y2="147.7266"/><text fill="#000000" font-family="sans-serif" font-size="13" lengthAdjust="spacingAndGlyphs" textLength="30" x="52" y="142.6606">login</text><polygon fill="#A80036" points="366,172.8594,376,176.8594,366,180.8594,370,176.8594" style="stroke: #A80036; stroke-width: 1.0;"/><line style="stroke: #A80036; stroke-width: 1.0;" x1="241" x2="372" y1="176.8594" y2="176.8594"/><text fill="#000000" font-family="sans-serif" font-size="13" lengthAdjust="spacingAndGlyphs" textLength="113" x="248" y="171.7935">authenticate user</text><polygon fill="#A80036" points="548,201.9922,558,205.9922,548,209.9922,552,205.9922" style="stroke: #A80036; stroke-width: 1.0;"/><line style="stroke: #A80036; stroke-width: 1.0;" x1="378" x2="554" y1="205.9922" y2="205.9922"/><text fill="#000000" font-family="sans-serif" font-size="13" lengthAdjust="spacingAndGlyphs" textLength="158" x="385" y="200.9263">retrieve user information</text><polygon fill="#A80036" points="56,215.9922,46,219.9922,56,223.9922,52,219.9922" style="stroke: #A80036; stroke-width: 1.0;"/><line style="stroke: #A80036; stroke-width: 1.0; stroke-dasharray: 2.0,2.0;" x1="50" x2="559" y1="219.9922" y2="219.9922"/><polygon fill="#A80036" points="229,245.125,239,249.125,229,253.125,233,249.125" style="stroke: #A80036; stroke-width: 1.0;"/><line style="stroke: #A80036; stroke-width: 1.0;" x1="45" x2="235" y1="249.125" y2="249.125"/><text fill="#000000" font-family="sans-serif" font-size="13" lengthAdjust="spacingAndGlyphs" textLength="106" x="52" y="244.0591">start transaction</text><polygon fill="#A80036" points="366,274.2578,376,278.2578,366,282.2578,370,278.2578" style="stroke: #A80036; stroke-width: 1.0;"/><line style="stroke: #A80036; stroke-width: 1.0;" x1="241" x2="372" y1="278.2578" y2="278.2578"/><text fill="#000000" font-family="sans-serif" font-size="13" lengthAdjust="spacingAndGlyphs" textLength="77" x="248" y="273.1919">createOrder</text><polygon fill="#A80036" points="252,318.5234,242,322.5234,252,326.5234,248,322.5234" style="stroke: #A80036; stroke-width: 1.0;"/><line style="stroke: #A80036; stroke-width: 1.0; stroke-dasharray: 2.0,2.0;" x1="246" x2="377" y1="322.5234" y2="322.5234"/><text fill="#000000" font-family="sans-serif" font-size="13" lengthAdjust="spacingAndGlyphs" textLength="85" x="258" y="302.3247">&lt;&lt;create&gt;&gt;</text><text fill="#000000" font-family="sans-serif" font-size="13" lengthAdjust="spacingAndGlyphs" textLength="59" x="258" y="317.4575">neworder</text><polygon fill="#A80036" points="548,347.6563,558,351.6563,548,355.6563,552,351.6563" style="stroke: #A80036; stroke-width: 1.0;"/><line style="stroke: #A80036; stroke-width: 1.0;" x1="241" x2="554" y1="351.6563" y2="351.6563"/><text fill="#000000" font-family="sans-serif" font-size="13" lengthAdjust="spacingAndGlyphs" textLength="77" x="248" y="346.5903">createOrder</text><polygon fill="#A80036" points="252,376.7891,242,380.7891,252,384.7891,248,380.7891" style="stroke: #A80036; stroke-width: 1.0;"/><line style="stroke: #A80036; stroke-width: 1.0; stroke-dasharray: 2.0,2.0;" x1="246" x2="559" y1="380.7891" y2="380.7891"/><text fill="#000000" font-family="sans-serif" font-size="13" lengthAdjust="spacingAndGlyphs" textLength="83" x="258" y="375.7231">generatePDF</text><polygon fill="#A80036" points="56,405.9219,46,409.9219,56,413.9219,52,409.9219" style="stroke: #A80036; stroke-width: 1.0;"/><line style="stroke: #A80036; stroke-width: 1.0; stroke-dasharray: 2.0,2.0;" x1="50" x2="240" y1="409.9219" y2="409.9219"/><text fill="#000000" font-family="sans-serif" font-size="13" lengthAdjust="spacingAndGlyphs" textLength="172" x="62" y="404.856">show order / generate SVG</text><!--
@startuml
title FOG - Sekvens Diagram

actor Customer
boundary "Fog Website" as GUI
control "Controller" as ctrl

database "SQL Database" as SQL

Customer -> GUI : login
GUI -> ctrl : authenticate user
ctrl -> SQL : retrieve user information
Customer <- - SQL

Customer -> GUI : start transaction
GUI -> ctrl : createOrder
ctrl - -> GUI : <<create>>\nneworder
GUI -> SQL : createOrder
GUI <- - SQL : generatePDF
Customer <- - GUI : show order / generate SVG
@enduml

PlantUML version 1.2019.07beta1(Unknown compile time)
(GPL source distribution)
Java Runtime: Java(TM) SE Runtime Environment
JVM: Java HotSpot(TM) 64-Bit Server VM
Java Version: 1.7.0_25-b15
Operating System: Linux
Default Encoding: UTF-8
Language: en
Country: US
--></g></svg>