<?xml version="1.0" encoding="UTF-8" standalone="no"?><svg xmlns="http://www.w3.org/2000/svg" xmlns:xlink="http://www.w3.org/1999/xlink" contentScriptType="application/ecmascript" contentStyleType="text/css" height="456px" preserveAspectRatio="none" style="width:509px;height:456px;" version="1.1" viewBox="0 0 509 456" width="509px" zoomAndPan="magnify"><defs><filter height="300%" id="fao6foieh8tau" width="300%" x="-1" y="-1"><feGaussianBlur result="blurOut" stdDeviation="2.0"/><feColorMatrix in="blurOut" result="blurOut2" type="matrix" values="0 0 0 0 0 0 0 0 0 0 0 0 0 0 0 0 0 0 .4 0"/><feOffset dx="4.0" dy="4.0" in="blurOut2" result="blurOut3"/><feBlend in="SourceGraphic" in2="blurOut3" mode="normal"/></filter></defs><g><text fill="#000000" font-family="sans-serif" font-size="14" font-weight="bold" lengthAdjust="spacingAndGlyphs" textLength="185" x="163.25" y="22.9951">FOG - Sekvens Diagram</text><line style="stroke: #A80036; stroke-width: 1.0; stroke-dasharray: 5.0,5.0;" x1="54" x2="54" y1="116.5938" y2="369.6563"/><line style="stroke: #A80036; stroke-width: 1.0; stroke-dasharray: 5.0,5.0;" x1="250" x2="250" y1="116.5938" y2="369.6563"/><line style="stroke: #A80036; stroke-width: 1.0; stroke-dasharray: 5.0,5.0;" x1="353.5" x2="353.5" y1="116.5938" y2="369.6563"/><line style="stroke: #A80036; stroke-width: 1.0; stroke-dasharray: 5.0,5.0;" x1="451.5" x2="451.5" y1="116.5938" y2="369.6563"/><text fill="#000000" font-family="sans-serif" font-size="14" lengthAdjust="spacingAndGlyphs" textLength="86" x="8" y="113.292">Salesperson</text><ellipse cx="54" cy="43.2969" fill="#FEFECE" filter="url(#fao6foieh8tau)" rx="8" ry="8" style="stroke: #A80036; stroke-width: 2.0;"/><path d="M54,51.2969 L54,78.2969 M41,59.2969 L67,59.2969 M54,78.2969 L41,93.2969 M54,78.2969 L67,93.2969 " fill="none" filter="url(#fao6foieh8tau)" style="stroke: #A80036; stroke-width: 2.0;"/><text fill="#000000" font-family="sans-serif" font-size="14" lengthAdjust="spacingAndGlyphs" textLength="86" x="8" y="381.6514">Salesperson</text><ellipse cx="54" cy="394.9531" fill="#FEFECE" filter="url(#fao6foieh8tau)" rx="8" ry="8" style="stroke: #A80036; stroke-width: 2.0;"/><path d="M54,402.9531 L54,429.9531 M41,410.9531 L67,410.9531 M54,429.9531 L41,444.9531 M54,429.9531 L67,444.9531 " fill="none" filter="url(#fao6foieh8tau)" style="stroke: #A80036; stroke-width: 2.0;"/><text fill="#000000" font-family="sans-serif" font-size="14" lengthAdjust="spacingAndGlyphs" textLength="86" x="204" y="113.292">Fog Website</text><path d="M229.5,72.2969 L229.5,96.2969 M229.5,84.2969 L246.5,84.2969 " fill="none" filter="url(#fao6foieh8tau)" style="stroke: #A80036; stroke-width: 2.0;"/><ellipse cx="258.5" cy="84.2969" fill="#FEFECE" filter="url(#fao6foieh8tau)" rx="12" ry="12" style="stroke: #A80036; stroke-width: 2.0;"/><text fill="#000000" font-family="sans-serif" font-size="14" lengthAdjust="spacingAndGlyphs" textLength="86" x="204" y="381.6514">Fog Website</text><path d="M229.5,388.9531 L229.5,412.9531 M229.5,400.9531 L246.5,400.9531 " fill="none" filter="url(#fao6foieh8tau)" style="stroke: #A80036; stroke-width: 2.0;"/><ellipse cx="258.5" cy="400.9531" fill="#FEFECE" filter="url(#fao6foieh8tau)" rx="12" ry="12" style="stroke: #A80036; stroke-width: 2.0;"/><text fill="#000000" font-family="sans-serif" font-size="14" lengthAdjust="spacingAndGlyphs" textLength="67" x="317.5" y="113.292">Controller</text><ellipse cx="354" cy="84.2969" fill="#FEFECE" filter="url(#fao6foieh8tau)" rx="12" ry="12" style="stroke: #A80036; stroke-width: 2.0;"/><polygon fill="#A80036" points="350,72.2969,356,67.2969,354,72.2969,356,77.2969,350,72.2969" style="stroke: #A80036; stroke-width: 1.0;"/><text fill="#000000" font-family="sans-serif" font-size="14" lengthAdjust="spacingAndGlyphs" textLength="67" x="317.5" y="381.6514">Controller</text><ellipse cx="354" cy="400.9531" fill="#FEFECE" filter="url(#fao6foieh8tau)" rx="12" ry="12" style="stroke: #A80036; stroke-width: 2.0;"/><polygon fill="#A80036" points="350,388.9531,356,383.9531,354,388.9531,356,393.9531,350,388.9531" style="stroke: #A80036; stroke-width: 1.0;"/><text fill="#000000" font-family="sans-serif" font-size="14" lengthAdjust="spacingAndGlyphs" textLength="97" x="400.5" y="113.292">SQL Database</text><path d="M434,64.2969 C434,54.2969 452,54.2969 452,54.2969 C452,54.2969 470,54.2969 470,64.2969 L470,90.2969 C470,100.2969 452,100.2969 452,100.2969 C452,100.2969 434,100.2969 434,90.2969 L434,64.2969 " fill="#FEFECE" filter="url(#fao6foieh8tau)" style="stroke: #000000; stroke-width: 1.5;"/><path d="M434,64.2969 C434,74.2969 452,74.2969 452,74.2969 C452,74.2969 470,74.2969 470,64.2969 " fill="none" style="stroke: #000000; stroke-width: 1.5;"/><text fill="#000000" font-family="sans-serif" font-size="14" lengthAdjust="spacingAndGlyphs" textLength="97" x="400.5" y="381.6514">SQL Database</text><path d="M434,394.9531 C434,384.9531 452,384.9531 452,384.9531 C452,384.9531 470,384.9531 470,394.9531 L470,420.9531 C470,430.9531 452,430.9531 452,430.9531 C452,430.9531 434,430.9531 434,420.9531 L434,394.9531 " fill="#FEFECE" filter="url(#fao6foieh8tau)" style="stroke: #000000; stroke-width: 1.5;"/><path d="M434,394.9531 C434,404.9531 452,404.9531 452,404.9531 C452,404.9531 470,404.9531 470,394.9531 " fill="none" style="stroke: #000000; stroke-width: 1.5;"/><polygon fill="#A80036" points="238,143.7266,248,147.7266,238,151.7266,242,147.7266" style="stroke: #A80036; stroke-width: 1.0;"/><line style="stroke: #A80036; stroke-width: 1.0;" x1="54" x2="244" y1="147.7266" y2="147.7266"/><text fill="#000000" font-family="sans-serif" font-size="13" lengthAdjust="spacingAndGlyphs" textLength="142" x="61" y="142.6606">choose available Case</text><polygon fill="#A80036" points="342,172.8594,352,176.8594,342,180.8594,346,176.8594" style="stroke: #A80036; stroke-width: 1.0;"/><line style="stroke: #A80036; stroke-width: 1.0;" x1="250" x2="348" y1="176.8594" y2="176.8594"/><text fill="#000000" font-family="sans-serif" font-size="13" lengthAdjust="spacingAndGlyphs" textLength="76" x="257" y="171.7935">Select Case</text><polygon fill="#A80036" points="261,201.9922,251,205.9922,261,209.9922,257,205.9922" style="stroke: #A80036; stroke-width: 1.0;"/><line style="stroke: #A80036; stroke-width: 1.0; stroke-dasharray: 2.0,2.0;" x1="255" x2="353" y1="205.9922" y2="205.9922"/><text fill="#000000" font-family="sans-serif" font-size="13" lengthAdjust="spacingAndGlyphs" textLength="74" x="267" y="200.9263">active Case</text><polygon fill="#A80036" points="342,231.125,352,235.125,342,239.125,346,235.125" style="stroke: #A80036; stroke-width: 1.0;"/><line style="stroke: #A80036; stroke-width: 1.0;" x1="250" x2="348" y1="235.125" y2="235.125"/><text fill="#000000" font-family="sans-serif" font-size="13" lengthAdjust="spacingAndGlyphs" textLength="80" x="257" y="230.0591">Select Order</text><polygon fill="#A80036" points="261,260.2578,251,264.2578,261,268.2578,257,264.2578" style="stroke: #A80036; stroke-width: 1.0;"/><line style="stroke: #A80036; stroke-width: 1.0; stroke-dasharray: 2.0,2.0;" x1="255" x2="353" y1="264.2578" y2="264.2578"/><text fill="#000000" font-family="sans-serif" font-size="13" lengthAdjust="spacingAndGlyphs" textLength="68" x="267" y="259.1919">showOrder</text><polygon fill="#A80036" points="440,289.3906,450,293.3906,440,297.3906,444,293.3906" style="stroke: #A80036; stroke-width: 1.0;"/><line style="stroke: #A80036; stroke-width: 1.0;" x1="250" x2="446" y1="293.3906" y2="293.3906"/><text fill="#000000" font-family="sans-serif" font-size="13" lengthAdjust="spacingAndGlyphs" textLength="152" x="257" y="288.3247">updateOrder/sendOrder</text><polygon fill="#A80036" points="261,318.5234,251,322.5234,261,326.5234,257,322.5234" style="stroke: #A80036; stroke-width: 1.0;"/><line style="stroke: #A80036; stroke-width: 1.0; stroke-dasharray: 2.0,2.0;" x1="255" x2="451" y1="322.5234" y2="322.5234"/><text fill="#000000" font-family="sans-serif" font-size="13" lengthAdjust="spacingAndGlyphs" textLength="87" x="267" y="317.4575">generate PDF</text><polygon fill="#A80036" points="65,347.6563,55,351.6563,65,355.6563,61,351.6563" style="stroke: #A80036; stroke-width: 1.0;"/><line style="stroke: #A80036; stroke-width: 1.0; stroke-dasharray: 2.0,2.0;" x1="59" x2="249" y1="351.6563" y2="351.6563"/><text fill="#000000" font-family="sans-serif" font-size="13" lengthAdjust="spacingAndGlyphs" textLength="172" x="71" y="346.5903">show order / generate SVG</text><!--
@startuml
title FOG - Sekvens Diagram

actor Salesperson
boundary "Fog Website" as GUI
control "Controller" as ctrl

database "SQL Database" as SQL

Salesperson -> GUI : choose available Case
GUI -> ctrl : Select Case
ctrl - -> GUI : active Case
GUI -> ctrl : Select Order
ctrl - -> GUI : showOrder
GUI -> SQL : updateOrder/sendOrder
GUI <- - SQL : generate PDF
Salesperson <- - GUI : show order / generate SVG
@enduml

PlantUML version 1.2019.07beta1(Unknown compile time)
(GPL source distribution)
Java Runtime: Java(TM) SE Runtime Environment
JVM: Java HotSpot(TM) 64-Bit Server VM
Java Version: 1.7.0_25-b15
Operating System: Linux
Default Encoding: UTF-8
Language: en
Country: US
--></g></svg>