<?xml version="1.0" encoding="UTF-8" standalone="no"?><svg xmlns="http://www.w3.org/2000/svg" xmlns:xlink="http://www.w3.org/1999/xlink" contentScriptType="application/ecmascript" contentStyleType="text/css" height="384px" preserveAspectRatio="none" style="width:437px;height:384px;" version="1.1" viewBox="0 0 437 384" width="437px" zoomAndPan="magnify"><defs><filter height="300%" id="feh7scu7etibm" width="300%" x="-1" y="-1"><feGaussianBlur result="blurOut" stdDeviation="2.0"/><feColorMatrix in="blurOut" result="blurOut2" type="matrix" values="0 0 0 0 0 0 0 0 0 0 0 0 0 0 0 0 0 0 .4 0"/><feOffset dx="4.0" dy="4.0" in="blurOut2" result="blurOut3"/><feBlend in="SourceGraphic" in2="blurOut3" mode="normal"/></filter></defs><g><text fill="#000000" font-family="sans-serif" font-size="14" font-weight="bold" lengthAdjust="spacingAndGlyphs" textLength="185" x="127.25" y="22.9951">FOG - Sekvens Diagram</text><line style="stroke: #A80036; stroke-width: 1.0; stroke-dasharray: 5.0,5.0;" x1="53" x2="53" y1="116.5938" y2="297.3906"/><line style="stroke: #A80036; stroke-width: 1.0; stroke-dasharray: 5.0,5.0;" x1="154" x2="154" y1="116.5938" y2="297.3906"/><line style="stroke: #A80036; stroke-width: 1.0; stroke-dasharray: 5.0,5.0;" x1="281.5" x2="281.5" y1="116.5938" y2="297.3906"/><line style="stroke: #A80036; stroke-width: 1.0; stroke-dasharray: 5.0,5.0;" x1="379.5" x2="379.5" y1="116.5938" y2="297.3906"/><text fill="#000000" font-family="sans-serif" font-size="14" lengthAdjust="spacingAndGlyphs" textLength="84" x="8" y="113.292">SuperAdmin</text><ellipse cx="53" cy="43.2969" fill="#FEFECE" filter="url(#feh7scu7etibm)" rx="8" ry="8" style="stroke: #A80036; stroke-width: 2.0;"/><path d="M53,51.2969 L53,78.2969 M40,59.2969 L66,59.2969 M53,78.2969 L40,93.2969 M53,78.2969 L66,93.2969 " fill="none" filter="url(#feh7scu7etibm)" style="stroke: #A80036; stroke-width: 2.0;"/><text fill="#000000" font-family="sans-serif" font-size="14" lengthAdjust="spacingAndGlyphs" textLength="84" x="8" y="309.3857">SuperAdmin</text><ellipse cx="53" cy="322.6875" fill="#FEFECE" filter="url(#feh7scu7etibm)" rx="8" ry="8" style="stroke: #A80036; stroke-width: 2.0;"/><path d="M53,330.6875 L53,357.6875 M40,338.6875 L66,338.6875 M53,357.6875 L40,372.6875 M53,357.6875 L66,372.6875 " fill="none" filter="url(#feh7scu7etibm)" style="stroke: #A80036; stroke-width: 2.0;"/><text fill="#000000" font-family="sans-serif" font-size="14" lengthAdjust="spacingAndGlyphs" textLength="86" x="108" y="113.292">Fog Website</text><path d="M133.5,72.2969 L133.5,96.2969 M133.5,84.2969 L150.5,84.2969 " fill="none" filter="url(#feh7scu7etibm)" style="stroke: #A80036; stroke-width: 2.0;"/><ellipse cx="162.5" cy="84.2969" fill="#FEFECE" filter="url(#feh7scu7etibm)" rx="12" ry="12" style="stroke: #A80036; stroke-width: 2.0;"/><text fill="#000000" font-family="sans-serif" font-size="14" lengthAdjust="spacingAndGlyphs" textLength="86" x="108" y="309.3857">Fog Website</text><path d="M133.5,316.6875 L133.5,340.6875 M133.5,328.6875 L150.5,328.6875 " fill="none" filter="url(#feh7scu7etibm)" style="stroke: #A80036; stroke-width: 2.0;"/><ellipse cx="162.5" cy="328.6875" fill="#FEFECE" filter="url(#feh7scu7etibm)" rx="12" ry="12" style="stroke: #A80036; stroke-width: 2.0;"/><text fill="#000000" font-family="sans-serif" font-size="14" lengthAdjust="spacingAndGlyphs" textLength="67" x="245.5" y="113.292">Controller</text><ellipse cx="282" cy="84.2969" fill="#FEFECE" filter="url(#feh7scu7etibm)" rx="12" ry="12" style="stroke: #A80036; stroke-width: 2.0;"/><polygon fill="#A80036" points="278,72.2969,284,67.2969,282,72.2969,284,77.2969,278,72.2969" style="stroke: #A80036; stroke-width: 1.0;"/><text fill="#000000" font-family="sans-serif" font-size="14" lengthAdjust="spacingAndGlyphs" textLength="67" x="245.5" y="309.3857">Controller</text><ellipse cx="282" cy="328.6875" fill="#FEFECE" filter="url(#feh7scu7etibm)" rx="12" ry="12" style="stroke: #A80036; stroke-width: 2.0;"/><polygon fill="#A80036" points="278,316.6875,284,311.6875,282,316.6875,284,321.6875,278,316.6875" style="stroke: #A80036; stroke-width: 1.0;"/><text fill="#000000" font-family="sans-serif" font-size="14" lengthAdjust="spacingAndGlyphs" textLength="97" x="328.5" y="113.292">SQL Database</text><path d="M362,64.2969 C362,54.2969 380,54.2969 380,54.2969 C380,54.2969 398,54.2969 398,64.2969 L398,90.2969 C398,100.2969 380,100.2969 380,100.2969 C380,100.2969 362,100.2969 362,90.2969 L362,64.2969 " fill="#FEFECE" filter="url(#feh7scu7etibm)" style="stroke: #000000; stroke-width: 1.5;"/><path d="M362,64.2969 C362,74.2969 380,74.2969 380,74.2969 C380,74.2969 398,74.2969 398,64.2969 " fill="none" style="stroke: #000000; stroke-width: 1.5;"/><text fill="#000000" font-family="sans-serif" font-size="14" lengthAdjust="spacingAndGlyphs" textLength="97" x="328.5" y="309.3857">SQL Database</text><path d="M362,322.6875 C362,312.6875 380,312.6875 380,312.6875 C380,312.6875 398,312.6875 398,322.6875 L398,348.6875 C398,358.6875 380,358.6875 380,358.6875 C380,358.6875 362,358.6875 362,348.6875 L362,322.6875 " fill="#FEFECE" filter="url(#feh7scu7etibm)" style="stroke: #000000; stroke-width: 1.5;"/><path d="M362,322.6875 C362,332.6875 380,332.6875 380,332.6875 C380,332.6875 398,332.6875 398,322.6875 " fill="none" style="stroke: #000000; stroke-width: 1.5;"/><polygon fill="#A80036" points="142,143.7266,152,147.7266,142,151.7266,146,147.7266" style="stroke: #A80036; stroke-width: 1.0;"/><line style="stroke: #A80036; stroke-width: 1.0;" x1="53" x2="148" y1="147.7266" y2="147.7266"/><text fill="#000000" font-family="sans-serif" font-size="13" lengthAdjust="spacingAndGlyphs" textLength="30" x="60" y="142.6606">login</text><polygon fill="#A80036" points="270,172.8594,280,176.8594,270,180.8594,274,176.8594" style="stroke: #A80036; stroke-width: 1.0;"/><line style="stroke: #A80036; stroke-width: 1.0;" x1="154" x2="276" y1="176.8594" y2="176.8594"/><text fill="#000000" font-family="sans-serif" font-size="13" lengthAdjust="spacingAndGlyphs" textLength="104" x="161" y="171.7935">createEmployee</text><polygon fill="#A80036" points="165,217.125,155,221.125,165,225.125,161,221.125" style="stroke: #A80036; stroke-width: 1.0;"/><line style="stroke: #A80036; stroke-width: 1.0; stroke-dasharray: 2.0,2.0;" x1="159" x2="281" y1="221.125" y2="221.125"/><text fill="#000000" font-family="sans-serif" font-size="13" lengthAdjust="spacingAndGlyphs" textLength="85" x="171" y="200.9263">&lt;&lt;create&gt;&gt;</text><text fill="#000000" font-family="sans-serif" font-size="13" lengthAdjust="spacingAndGlyphs" textLength="88" x="171" y="216.0591">newemployee</text><polygon fill="#A80036" points="368,246.2578,378,250.2578,368,254.2578,372,250.2578" style="stroke: #A80036; stroke-width: 1.0;"/><line style="stroke: #A80036; stroke-width: 1.0;" x1="154" x2="374" y1="250.2578" y2="250.2578"/><text fill="#000000" font-family="sans-serif" font-size="13" lengthAdjust="spacingAndGlyphs" textLength="112" x="161" y="245.1919">createeEmployee</text><polygon fill="#A80036" points="64,275.3906,54,279.3906,64,283.3906,60,279.3906" style="stroke: #A80036; stroke-width: 1.0;"/><line style="stroke: #A80036; stroke-width: 1.0; stroke-dasharray: 2.0,2.0;" x1="58" x2="379" y1="279.3906" y2="279.3906"/><text fill="#000000" font-family="sans-serif" font-size="13" lengthAdjust="spacingAndGlyphs" textLength="102" x="70" y="274.3247">showEmployees</text><!--
@startuml
title FOG - Sekvens Diagram

actor SuperAdmin
boundary "Fog Website" as GUI
control "Controller" as ctrl

database "SQL Database" as SQL

SuperAdmin -> GUI : login
GUI -> ctrl : createEmployee
ctrl - -> GUI : <<create>>\nnewemployee
GUI -> SQL : createeEmployee
SuperAdmin <- - SQL : showEmployees
@enduml

PlantUML version 1.2019.07beta1(Unknown compile time)
(GPL source distribution)
Java Runtime: Java(TM) SE Runtime Environment
JVM: Java HotSpot(TM) 64-Bit Server VM
Java Version: 1.7.0_25-b15
Operating System: Linux
Default Encoding: UTF-8
Language: en
Country: US
--></g></svg>